<svg xmlns="http://www.w3.org/2000/svg" xmlns:xlink="http://www.w3.org/1999/xlink"><defs><symbol viewBox="0 0 13 13" fill="none" id="arrow"><path d="M1.48218 5.73488C1.03838 5.73488 0.678606 6.09465 0.678606 6.53845C0.678606 6.98225 1.03838 7.34202 1.48218 7.34202L1.48218 5.73488ZM12.4968 7.10666C12.8106 6.79285 12.8106 6.28406 12.4968 5.97024L7.38292 0.856344C7.06911 0.54253 6.56031 0.54253 6.2465 0.856344C5.93268 1.17016 5.93268 1.67895 6.2465 1.99277L10.7922 6.53845L6.2465 11.0841C5.93268 11.398 5.93268 11.9067 6.2465 12.2206C6.56031 12.5344 7.06911 12.5344 7.38292 12.2206L12.4968 7.10666ZM1.48218 7.34202L11.9286 7.34202V5.73488L1.48218 5.73488L1.48218 7.34202Z" fill="currentColor"/></symbol><symbol viewBox="0 0 32 31" fill="none" id="copy"><path d="M26.0275 26L12.0085 26V12H26.0275L26.0275 26Z" stroke="currentColor" stroke-width="2"/><path fill-rule="evenodd" clip-rule="evenodd" d="M19.942 9.30764V5.00001C19.942 4.44772 19.4943 4.00001 18.942 4.00001H5.00005C4.44777 4.00001 4.00005 4.44772 4.00005 5V18.9231C4.00005 19.4754 4.44777 19.9231 5.00005 19.9231H9.31377V17.9231H6.00005V6.00001H17.942V9.30764H19.942Z" fill="currentColor"/><g opacity="0.2" filter="url(#copy_filter0_f_66_226)"><path d="M26.0275 26L12.0085 26V12H26.0275L26.0275 26Z" stroke="currentColor" stroke-width="2"/><path fill-rule="evenodd" clip-rule="evenodd" d="M19.942 9.30764V5.00001C19.942 4.44772 19.4943 4.00001 18.942 4.00001H5.00005C4.44777 4.00001 4.00005 4.44772 4.00005 5V18.9231C4.00005 19.4754 4.44777 19.9231 5.00005 19.9231H9.31377V17.9231H6.00005V6.00001H17.942V9.30764H19.942Z" fill="currentColor"/></g><defs><filter id="copy_filter0_f_66_226" x="0" y="0" width="31.0275" height="31" filterUnits="userSpaceOnUse" color-interpolation-filters="sRGB"><feFlood flood-opacity="0" result="BackgroundImageFix"/><feBlend mode="normal" in="SourceGraphic" in2="BackgroundImageFix" result="shape"/><feGaussianBlur stdDeviation="2" result="effect1_foregroundBlur_66_226"/></filter></defs></symbol><symbol viewBox="0 0 34 34" fill="none" id="handshake"><path d="M17.6641 0.293521C17.7639 0.21395 17.8527 0.120121 17.9277 0.0147545H22.5227C22.8691 -0.00491818 23.2164 -0.00491818 23.5629 0.0147545H23.631C24.652 0.0117305 25.6606 0.248561 26.5831 0.707903C28.2683 1.40214 29.7259 2.59411 30.7799 4.13974C31.5776 5.31013 32.1203 6.65055 32.3695 8.0659C32.6187 9.48125 32.5683 10.9369 32.2218 12.3294L26.3374 6.23237C26.0855 5.97151 25.746 5.82535 25.3922 5.82553H16.8283C16.5535 5.83726 16.2888 5.93718 16.0697 6.11183L12.6908 8.80155C12.5092 8.94675 12.3021 9.05296 12.0815 9.11413C11.8608 9.1753 11.6308 9.19021 11.4046 9.15803C11.1785 9.12585 10.9606 9.0472 10.7633 8.92656C10.5661 8.80593 10.3935 8.64569 10.2552 8.45497C10.1178 8.26725 10.0171 8.05281 9.95902 7.82402C9.90092 7.59522 9.88655 7.35661 9.91673 7.12195C9.94691 6.88729 10.021 6.66123 10.1349 6.45682C10.2487 6.25241 10.3999 6.0737 10.5798 5.93101L17.6641 0.293521ZM8.81146 21.152L8.78635 21.1765L7.03949 22.9998L7.01618 23.0224C6.71026 23.3279 6.30315 23.4964 5.88103 23.4922C5.45891 23.4879 5.05492 23.3114 4.75459 22.9998C4.60455 22.8436 4.48545 22.6577 4.40417 22.4529C4.3229 22.2481 4.28105 22.0284 4.28105 21.8066C4.28105 21.5847 4.3229 21.365 4.40417 21.1602C4.48545 20.9554 4.60455 20.7695 4.75459 20.6133L6.50145 18.79C6.80571 18.4736 7.2166 18.2961 7.64479 18.2961C8.07299 18.2961 8.48388 18.4736 8.78814 18.79C9.0872 19.1013 9.25737 19.5238 9.26173 19.966C9.2661 20.4082 9.10431 20.8343 8.81146 21.152ZM8.28955 24.3503C7.9967 24.668 7.83491 25.0942 7.83927 25.5363C7.84364 25.9785 8.01381 26.401 8.31287 26.7123C8.94417 27.3715 9.96826 27.3715 10.5996 26.7123L12.3464 24.8909C12.5161 24.7145 12.646 24.5005 12.7267 24.2646C12.8074 24.0286 12.8368 23.7767 12.8127 23.5273C12.7886 23.2779 12.7117 23.0373 12.5876 22.8231C12.4634 22.609 12.2952 22.4267 12.0953 22.2897C11.7889 22.0779 11.4233 21.9813 11.0579 22.0155C10.6926 22.0497 10.349 22.2127 10.083 22.478L10.0597 22.5044L8.31287 24.3258L8.28955 24.3503ZM4.50888 15.8253C4.65893 15.9815 4.77802 16.1674 4.8593 16.3722C4.94058 16.577 4.98242 16.7967 4.98242 17.0186C4.98242 17.2404 4.94058 17.4601 4.8593 17.6649C4.77802 17.8697 4.65893 18.0556 4.50888 18.2118L2.76203 20.0351C2.45769 20.3521 2.04642 20.53 1.61778 20.53C1.18915 20.53 0.777875 20.3521 0.473541 20.0351C0.323497 19.8789 0.2044 19.693 0.123123 19.4882C0.041846 19.2834 0 19.0637 0 18.8418C0 18.62 0.041846 18.4003 0.123123 18.1955C0.2044 17.9907 0.323497 17.8048 0.473541 17.6486L2.22219 15.8253C2.52645 15.5089 2.93734 15.3314 3.36554 15.3314C3.79374 15.3314 4.20463 15.5089 4.50888 15.8253ZM15.9029 26.2169C16.0529 26.3731 16.172 26.559 16.2533 26.7638C16.3346 26.9686 16.3764 27.1883 16.3764 27.4101C16.3764 27.632 16.3346 27.8517 16.2533 28.0565C16.172 28.2613 16.0529 28.4472 15.9029 28.6034L14.156 30.4267C13.8518 30.7431 13.4409 30.9206 13.0127 30.9206C12.5845 30.9206 12.1736 30.7431 11.8694 30.4267C11.6311 30.1786 11.4732 29.8582 11.4178 29.5107C11.3625 29.1633 11.4125 28.8063 11.5609 28.4904L11.5627 28.4866C11.6409 28.3211 11.7445 28.1703 11.8694 28.0402L13.6162 26.2169C13.9205 25.9005 14.3314 25.723 14.7596 25.723C15.1878 25.723 15.5986 25.9005 15.9029 26.2169ZM4.2291 3.43718C5.41994 2.19467 6.86399 1.25251 8.45223 0.681823C10.0405 0.111137 11.7314 -0.0731626 13.3974 0.142837L8.95673 3.68016C8.49418 4.04767 8.10543 4.50765 7.81286 5.03361C7.52029 5.55956 7.32967 6.14111 7.25199 6.74475C7.17431 7.3484 7.21109 7.96222 7.36023 8.55087C7.50937 9.13952 7.76791 9.69138 8.12096 10.1747C8.83379 11.1505 9.88516 11.7906 11.0457 11.9554C12.2062 12.1202 13.3817 11.7962 14.3157 11.0543L17.3341 8.65275H24.8398L31.1296 15.1699C31.1498 15.1962 31.1714 15.2213 31.1942 15.2452L33.2567 17.4113C33.7206 17.9053 33.9865 18.5674 33.9995 19.2612C34.0125 19.955 33.7716 20.6276 33.3266 21.1404C32.8815 21.6532 32.266 21.9673 31.6071 22.0178C30.9481 22.0683 30.2958 21.8515 29.7845 21.412L29.6123 21.2311C29.579 21.1955 29.543 21.1627 29.5047 21.1332L27.5444 19.0763C27.4617 18.9864 27.3627 18.9147 27.2533 18.8653C27.1439 18.8159 27.0263 18.79 26.9072 18.7889C26.7881 18.7878 26.67 18.8116 26.5598 18.859C26.4496 18.9063 26.3495 18.9762 26.2653 19.0647C26.1811 19.1531 26.1145 19.2583 26.0694 19.374C26.0243 19.4897 26.0017 19.6137 26.0027 19.7388C26.0037 19.8638 26.0285 19.9874 26.0755 20.1023C26.1225 20.2172 26.1908 20.3211 26.2764 20.408L28.3389 22.5741C28.4143 22.6513 28.4896 22.7267 28.5685 22.7983L28.6474 22.8811C28.8201 23.0586 28.9576 23.2704 29.0519 23.5041C29.1461 23.7377 29.1954 23.9887 29.1967 24.2425C29.198 24.4963 29.1513 24.7478 29.0595 24.9826C28.9676 25.2173 28.8323 25.4306 28.6614 25.61C28.4905 25.7895 28.2875 25.9316 28.064 26.0281C27.8404 26.1246 27.6009 26.1735 27.3593 26.1722C27.1176 26.1708 26.8786 26.1191 26.6561 26.0201C26.4336 25.9211 26.232 25.7767 26.063 25.5953L25.7581 25.277C25.6316 25.1445 25.4704 25.0548 25.295 25.0192C25.1196 24.9836 24.9381 25.0038 24.7737 25.0773C24.6094 25.1507 24.4696 25.2741 24.3724 25.4315C24.2753 25.5889 24.2251 25.7732 24.2283 25.9607C24.2254 26.0881 24.2474 26.2148 24.2927 26.333C24.338 26.4512 24.4058 26.5585 24.4919 26.6482L24.8919 27.0683C25.0567 27.2313 25.1887 27.4273 25.28 27.6449C25.3713 27.8624 25.4201 28.097 25.4235 28.3347C25.4269 28.5725 25.3849 28.8085 25.2998 29.0288C25.2148 29.2491 25.0884 29.4493 24.9284 29.6174C24.7683 29.7855 24.5777 29.9182 24.3679 30.0075C24.1581 30.0968 23.9334 30.141 23.707 30.1374C23.4807 30.1339 23.2573 30.0826 23.0502 29.9867C22.843 29.8908 22.6563 29.7522 22.5011 29.5791H22.4993L22.4778 29.5546L22.1012 29.159C22.0183 29.0709 21.9196 29.001 21.8107 28.9532C21.7019 28.9055 21.5851 28.8809 21.4672 28.8809C21.3492 28.8809 21.2325 28.9055 21.1237 28.9532C21.0148 29.001 20.9161 29.0709 20.8332 29.159C20.6651 29.3356 20.5706 29.5751 20.5706 29.8249C20.5706 30.0746 20.6651 30.3141 20.8332 30.4907L21.2242 30.9032C21.3852 31.0702 21.5132 31.2688 21.6011 31.4877C21.689 31.7067 21.735 31.9417 21.7364 32.1793C21.7378 32.4169 21.6947 32.6525 21.6094 32.8726C21.5241 33.0927 21.3984 33.2929 21.2394 33.462C21.0804 33.6311 20.8913 33.7656 20.6828 33.8579C20.4743 33.9502 20.2506 33.9985 20.0243 34C19.7981 34.0014 19.5738 33.9561 19.3642 33.8666C19.1547 33.777 18.9639 33.645 18.803 33.478L16.2365 30.9164L17.1781 29.9332C17.495 29.6033 17.7465 29.2107 17.9182 28.7781C18.0898 28.3456 18.1782 27.8816 18.1782 27.413C18.1782 26.9443 18.0898 26.4804 17.9182 26.0478C17.7465 25.6153 17.495 25.2227 17.1781 24.8928C16.8427 24.5424 16.4418 24.2689 16.0007 24.0896C15.5595 23.9103 15.0877 23.8291 14.6152 23.8512C14.6359 23.3569 14.5578 22.8637 14.3861 22.403C14.2144 21.9424 13.9527 21.5246 13.618 21.1765C13.2827 20.8267 12.882 20.5537 12.4412 20.3747C12.0004 20.1958 11.529 20.1147 11.0569 20.1368C11.0776 19.6429 10.9995 19.1499 10.8278 18.6895C10.656 18.2292 10.3944 17.8117 10.0597 17.464C9.63369 17.0195 9.10398 16.7003 8.52358 16.5383C7.94319 16.3764 7.33247 16.3773 6.75253 16.5411C6.6525 15.7667 6.31135 15.0488 5.78226 14.4993C5.19224 13.8851 4.41015 13.5165 3.58103 13.4617C2.75192 13.407 1.93204 13.6699 1.27344 14.2017C0.850082 12.292 0.899454 10.3002 1.41685 8.41619C1.93424 6.53218 2.90241 4.8187 4.2291 3.43906V3.43718Z" fill="currentColor"/></symbol><symbol viewBox="0 0 40 44" fill="none" id="logo"><path fill-rule="evenodd" clip-rule="evenodd" d="M39.4662 23.2998C39.4662 23.988 38.9608 24.829 38.3431 25.154C38.0436 25.3069 37.3698 25.4407 36.8457 25.4407C36.3216 25.4407 35.9099 25.4789 35.9099 25.5172C35.9099 25.5554 36.0783 26.8743 36.2842 28.4227C36.7334 31.9207 36.7521 32.7809 36.3029 33.7558C35.367 35.8393 33.7199 36.4319 30.4069 35.954C29.6956 35.8393 29.078 35.8011 29.0405 35.8393C29.0031 35.8775 29.1715 37.4641 29.4336 39.3373C29.6956 41.2297 29.9202 42.9692 29.9202 43.1986V43.6H10.0797V43.1986C10.0797 42.9692 10.4166 40.5607 10.8471 37.8273C11.2589 35.0938 11.5771 32.7044 11.5397 32.5133C11.5022 32.3412 10.9407 31.7487 10.2669 31.2326C7.40309 28.9961 5.30673 25.6701 4.23984 21.6559C3.73446 19.7253 3.67831 15.5965 4.12753 13.9143C4.29599 13.2835 4.48316 12.7292 4.55803 12.6719C4.61419 12.6145 5.06341 12.9777 5.56878 13.4747C6.4485 14.354 6.46722 14.3922 6.31748 15.1759C5.92441 17.2786 6.26133 20.5664 7.10361 22.8602C8.28282 26.0906 10.2856 28.4227 14.0104 30.8885C18.4464 33.8322 20.6738 36.7377 21.0482 40.0446L21.1792 41.1151H27.3372L27.2249 40.5989C27.1769 40.3374 27.0468 39.4049 26.9047 38.3872L26.9047 38.3869L26.8319 37.8655C26.6634 36.6612 26.4762 35.629 26.4014 35.5526C26.3265 35.4952 25.4655 35.3232 24.4922 35.1894C23.5189 35.0556 22.452 34.8453 22.1525 34.7115C21.3476 34.3866 20.0374 32.8 19.869 31.9589C19.7754 31.5766 19.7192 28.3653 19.7192 24.8099C19.7192 20.9678 19.6443 18.3681 19.5508 18.3681C19.1764 18.3681 17.7539 20.1458 17.7539 20.6046C17.7539 22.4588 15.4329 23.3954 14.1227 22.0765C12.8312 20.7384 13.7296 18.3681 15.5265 18.3681C15.8634 18.3681 16.3688 18.0432 17.0426 17.4124L18.0721 16.4566L18.0346 15.2142L18.0346 15.2131C18.0159 13.9717 18.0156 13.9523 17.0052 12.9204C16.2003 12.0793 15.9008 11.8881 15.5265 11.9646C14.9462 12.0602 12.3258 14.6981 12.3258 15.1759C12.3258 15.692 11.8204 16.6096 11.4086 16.8389C11.2027 16.9345 10.6974 17.0301 10.2669 17.0301C9.31228 17.0301 8.39512 16.2273 8.39512 15.3862C8.39512 14.9657 7.90847 14.354 5.92441 12.3278C3.82805 10.1869 3.32268 9.76637 2.72372 9.6708C0.683511 9.30761 0.0471157 6.78443 1.73169 5.7331C2.63013 5.17876 3.41627 5.25522 4.18368 5.9816C4.74521 6.53593 4.87623 6.82266 5.00725 7.87398C5.04469 8.08425 5.71852 8.81062 5.88698 8.81062C5.98056 8.81062 6.24261 8.46655 6.46722 8.06513C7.59027 6.05805 10.2294 3.55398 12.7189 2.13947C16.3501 0.0750455 21.3476 -0.498406 25.6714 0.648497C30.2384 1.87186 33.6825 4.94938 35.5355 9.49876C36.1906 11.1044 39.4662 22.6117 39.4662 23.2998ZM35.2735 22.9558C36.8457 22.9558 37.0516 22.9175 36.958 22.6499C36.9019 22.4779 36.1345 19.8018 35.2547 16.686C34.375 13.5512 33.4017 10.4736 33.1022 9.8046C32.4471 8.37097 31.1743 6.65062 30.0138 5.59929C28.9469 4.64354 26.6447 3.40106 25.1473 2.98053C23.8371 2.61735 19.6069 2.44531 18.278 2.69381C14.235 3.43929 9.92996 6.4977 8.18923 9.88106L7.75873 10.703L8.67588 11.7352L8.75539 11.8231C9.50185 12.6479 9.87766 13.0632 10.2639 13.0731C10.6555 13.0832 11.0579 12.6766 11.8682 11.8576L11.8682 11.8576L11.9514 11.7735C13.0371 10.6648 13.4488 10.1104 13.4488 9.76637C13.4488 8.42832 14.965 7.2623 16.1816 7.66372C17.0239 7.95044 17.7539 8.86797 17.7539 9.65168C17.7539 10.1296 17.9598 10.4545 18.7459 11.2573C19.4073 11.92 20.1435 12.2513 20.9546 12.2513H22.1712L23.1445 11.2C23.9307 10.3589 24.1178 10.034 24.1178 9.49876C24.1178 8.69593 24.9414 7.77841 25.8024 7.58726C26.9442 7.35788 28.2357 8.29452 28.2357 9.38407C28.2357 10.034 28.3667 10.2251 29.9577 11.8117C30.8374 12.7101 31.4738 13.2071 31.7358 13.2071C31.9792 13.2071 32.4284 13.4556 32.7466 13.7423C33.2145 14.1819 33.3456 14.4304 33.3643 15.0995C33.383 15.7876 33.2894 15.9979 32.7653 16.4758C31.923 17.2595 30.8561 17.2404 30.0887 16.4758C29.7331 16.1126 29.5459 15.7112 29.5459 15.3671C29.5459 14.9083 29.2464 14.5069 28.0672 13.3218C26.2891 11.5632 26.027 11.5441 24.6419 13.035C23.7622 13.9908 23.7435 14.0481 23.7435 15.195C23.7435 16.3419 23.7435 16.3802 24.7355 17.3742C25.4468 18.0814 25.8586 18.3681 26.2329 18.3681C27.9175 18.3681 28.9095 20.4135 27.8988 21.7897C27.4495 22.4014 26.3639 22.8602 25.6901 22.6881C24.8852 22.4779 24.1178 21.5604 24.1178 20.8149C24.1178 20.2988 23.9306 19.9929 23.2194 19.2666C22.7327 18.7696 22.2648 18.3681 22.1899 18.3681C22.1151 18.3681 22.0589 21.2545 22.0589 24.7717C22.0589 31.9016 22.0963 32.1119 23.2194 32.4942C23.9306 32.7235 31.5487 33.6602 32.6717 33.6602C33.4204 33.6602 34.0194 33.2205 34.2814 32.4942C34.3376 32.3221 34.1317 30.2195 33.8322 27.811C33.5327 25.4216 33.3081 23.3572 33.3643 23.2043C33.4391 23.0322 33.9445 22.9558 35.2735 22.9558ZM18.7459 41.1151L18.6336 40.1784C18.5026 39.0506 17.9972 37.942 16.949 36.5466C15.9383 35.2085 13.8232 33.4308 13.8232 33.9469C13.8232 34.0998 12.8873 40.0446 12.775 40.5798L12.6627 41.1151H18.7459ZM4.23048 7.52035C4.23048 8.31212 3.60197 8.95398 2.82667 8.95398C2.05136 8.95398 1.42286 8.31212 1.42286 7.52035C1.42286 6.72858 2.05136 6.08672 2.82667 6.08672C3.60197 6.08672 4.23048 6.72858 4.23048 7.52035ZM15.5546 11.2478C16.3299 11.2478 16.9584 10.6059 16.9584 9.81416C16.9584 9.02239 16.3299 8.38053 15.5546 8.38053C14.7793 8.38053 14.1508 9.02239 14.1508 9.81416C14.1508 10.6059 14.7793 11.2478 15.5546 11.2478ZM22.3865 15.1664C22.3865 15.9581 21.7579 16.6 20.9826 16.6C20.2073 16.6 19.5788 15.9581 19.5788 15.1664C19.5788 14.3746 20.2073 13.7327 20.9826 13.7327C21.7579 13.7327 22.3865 14.3746 22.3865 15.1664ZM15.5546 22.1434C16.3299 22.1434 16.9584 21.5015 16.9584 20.7097C16.9584 19.918 16.3299 19.2761 15.5546 19.2761C14.7793 19.2761 14.1508 19.918 14.1508 20.7097C14.1508 21.5015 14.7793 22.1434 15.5546 22.1434ZM27.6274 9.81416C27.6274 10.6059 26.9989 11.2478 26.2235 11.2478C25.4482 11.2478 24.8197 10.6059 24.8197 9.81416C24.8197 9.02239 25.4482 8.38053 26.2235 8.38053C26.9989 8.38053 27.6274 9.02239 27.6274 9.81416ZM31.6516 16.6C32.4269 16.6 33.0554 15.9581 33.0554 15.1664C33.0554 14.3746 32.4269 13.7327 31.6516 13.7327C30.8763 13.7327 30.2478 14.3746 30.2478 15.1664C30.2478 15.9581 30.8763 16.6 31.6516 16.6ZM27.6274 20.7097C27.6274 21.5015 26.9989 22.1434 26.2235 22.1434C25.4482 22.1434 24.8197 21.5015 24.8197 20.7097C24.8197 19.918 25.4482 19.2761 26.2235 19.2761C26.9989 19.2761 27.6274 19.918 27.6274 20.7097ZM10.3137 16.4088C11.089 16.4088 11.7175 15.767 11.7175 14.9752C11.7175 14.1834 11.089 13.5416 10.3137 13.5416C9.53836 13.5416 8.90986 14.1834 8.90986 14.9752C8.90986 15.767 9.53836 16.4088 10.3137 16.4088Z" fill="currentColor"/></symbol><symbol viewBox="0 0 34 34" fill="none" id="openai"><path d="M14.1867 0C12.1374 0 10.2846 0.855436 8.95784 2.22904C8.35578 2.85237 8.0835 3.72718 8.11164 4.59531L8.42594 14.1158C8.45182 14.9046 8.88363 15.6229 9.56446 16.0128L11.9338 17.3674L11.8789 10.0406C11.8676 8.46303 12.6719 6.99221 14.002 6.15807L19.721 2.57214C18.3515 0.960535 16.3473 0 14.1867 0ZM25.0751 2.51016C24.4307 2.49448 23.7864 2.69291 23.2311 3.04141L15.1933 8.07943C14.5271 8.49649 14.125 9.23298 14.1317 10.0229L14.1515 12.7677L20.4265 9.0556C21.7781 8.2566 23.4437 8.22138 24.8268 8.96484L30.7721 12.1612C31.4732 10.1609 31.2987 7.94006 30.2139 6.0474C29.2359 4.34286 27.6591 3.12306 25.7719 2.61419C25.7539 2.60966 25.7349 2.60544 25.7169 2.60091C25.5056 2.54566 25.2899 2.51538 25.0751 2.51016ZM5.95329 7.4043C3.88268 7.78963 2.05758 9.06334 0.975014 10.9526C-0.0501625 12.741 -0.239377 14.7864 0.278276 16.6303C0.51347 17.4667 1.12862 18.1403 1.88935 18.5495L10.2326 23.0363C10.9258 23.4081 11.7575 23.3899 12.4327 22.9898L14.7823 21.602L8.45451 17.985C7.09174 17.2064 6.22924 15.7708 6.17747 14.1932L5.95329 7.4043ZM22.6596 10.698C22.2808 10.706 21.9049 10.8101 21.5673 11.0102L19.2177 12.398L25.5455 16.015C26.9083 16.7936 27.7708 18.2292 27.8225 19.8068L28.0467 26.5868C30.1162 26.1981 31.9413 24.9356 33.025 23.0452C34.0502 21.2568 34.2394 19.2147 33.7217 17.3697C33.4865 16.5333 32.8703 15.8574 32.1085 15.4483L23.7652 10.9637C23.4203 10.7784 23.0384 10.6901 22.6596 10.698ZM16.8088 13.8081C16.6149 13.8198 16.4248 13.8824 16.2571 13.994L14.5449 15.1318C14.2096 15.3539 14.018 15.741 14.0416 16.1456L14.1647 18.2064C14.1883 18.611 14.4244 18.9702 14.7845 19.1516L16.6176 20.0768C16.9777 20.2582 17.4053 20.2315 17.7407 20.0082L19.4529 18.8704C19.7882 18.6472 19.9809 18.2601 19.9562 17.8566L19.8331 15.7958C19.8095 15.3912 19.5734 15.032 19.2133 14.8507L17.3802 13.9254C17.2002 13.8347 17.0026 13.7963 16.8088 13.8081ZM22.0662 16.6326L22.1211 23.9594C22.1324 25.537 21.3281 27.0078 19.998 27.8419L14.2702 31.4323C15.6363 33.045 17.6347 34 19.8133 34C21.8626 34 23.7143 33.1446 25.0422 31.771C25.6442 31.1476 25.9165 30.2728 25.8884 29.4047L25.5741 19.8842C25.5482 19.0954 25.1164 18.3771 24.4355 17.9872L22.0662 16.6326ZM19.8485 21.2323L13.5735 24.9444C12.8757 25.3569 12.0853 25.5664 11.2942 25.5664C10.5639 25.5664 9.83375 25.3899 9.17543 25.0352L3.22128 21.8344C2.51795 23.8324 2.6979 26.0497 3.78834 27.9526C4.76626 29.6571 6.34095 30.8747 8.22813 31.3836C8.23375 31.3847 8.24116 31.3869 8.24791 31.388C9.10429 31.617 10.0183 31.4278 10.7711 30.9564L18.8067 25.9184C19.4718 25.5036 19.875 24.767 19.8683 23.9771L19.8485 21.2323Z" fill="currentColor"/></symbol><symbol viewBox="0 0 30 30" fill="none" id="rhombus"><path d="M10.8236 0.640637C10.8525 0.00492484 11.8985 -0.249352 12.2106 0.305451C13.6785 2.90609 16.1751 6.72613 19.0069 8.46567C21.8387 10.1994 26.3812 10.6964 29.3632 10.8236C29.999 10.8525 30.2475 11.8985 29.6927 12.2106C27.092 13.6785 23.2778 16.1751 21.5382 19.0069C19.7987 21.8387 19.3074 26.3812 19.1803 29.3633C19.1514 29.999 18.0996 30.2475 17.7933 29.6927C16.3254 27.092 13.8288 23.2778 10.9912 21.5382C8.15938 19.7987 3.61693 19.3074 0.640644 19.1803C0.00493229 19.1514 -0.249356 18.0996 0.305447 17.7933C2.90609 16.3254 6.72614 13.8288 8.46568 10.9912C10.1994 8.15937 10.6964 3.61692 10.8236 0.640637Z" fill="currentColor"/></symbol><symbol viewBox="0 0 40 22" fill="none" id="star"><path d="M24.2367 0.310436C24.4273 0.605324 24.3106 0.980561 23.9761 1.14855L23.2736 1.50142C22.9392 1.66941 22.5136 1.56654 22.3231 1.27165C22.1325 0.976765 22.2492 0.601527 22.5837 0.433536L23.2862 0.0806689C23.6206 -0.0873222 24.0462 0.015548 24.2367 0.310436Z" fill="currentColor"/><path d="M21.0291 1.76525C21.2166 2.06163 21.0961 2.43593 20.76 2.60127C20.4086 2.7741 20.0227 2.95556 19.6055 3.15174C16.3296 4.69216 11.1229 7.14052 5.5383 13.4499C5.53333 13.4571 5.52833 13.4643 5.52331 13.4714C4.80459 14.4892 3.36714 17.8497 7.50523 17.8497C11.5933 17.8497 16.5697 15.5668 17.8277 14.9897L18.0315 14.8962C18.7794 14.5531 20.1083 13.9434 21.1554 13.4935L20.3517 13.4508C19.9149 13.4276 19.739 12.9428 20.0795 12.7004L25.0739 9.14429C25.2202 9.04008 25.2839 8.87 25.2366 8.70945L23.6236 3.23078C23.5137 2.85735 23.9823 2.56006 24.3489 2.77062L29.7281 5.85984C29.8857 5.95037 30.0889 5.95119 30.2474 5.86194L35.6585 2.81635C36.0273 2.60876 36.4928 2.90982 36.379 3.28235L34.7091 8.74775C34.6601 8.90791 34.722 9.07849 34.8673 9.18388L39.8245 12.7803C40.1624 13.0254 39.9815 13.5088 39.5445 13.5284L33.1333 13.817C32.9454 13.8255 32.7805 13.9301 32.7117 14.0845L30.3644 19.3528C30.2044 19.7118 29.6271 19.7095 29.4709 19.3491L27.6578 15.1677C24.6875 17.2928 21.1554 18.8374 14.5836 20.9991C7.75353 22.8119 3.67932 21.7544 2.49597 20.9991C1.65383 20.455 0.283697 18.9381 0.0348942 17.2928C-0.313592 14.9884 2.0386 11.8967 3.06223 10.7637C3.88114 9.85734 4.4416 10.1108 4.69569 10.3988C4.85434 10.6539 4.50914 11.0183 3.97023 11.5872C3.27286 12.3233 2.25112 13.4018 1.57701 15.029C1.75663 14.7515 2.2996 14.382 2.86367 13.9982C3.3574 13.6623 3.86733 13.3153 4.16384 13.0094C4.17107 13.0001 4.17862 12.9909 4.18651 12.9818C10.0512 6.24911 15.5927 3.6448 18.9419 2.07082C19.3563 1.87607 19.7372 1.69706 20.0809 1.52798C20.417 1.36264 20.8415 1.46887 21.0291 1.76525Z" fill="currentColor"/><path d="M7.637 8.36707C7.90398 8.12261 7.89566 7.7336 7.6184 7.49819C7.34114 7.26278 6.89994 7.27012 6.63295 7.51458L5.50042 8.55156C5.23343 8.79602 5.24176 9.18504 5.51902 9.42045C5.79627 9.65585 6.23747 9.64851 6.50447 9.40405L7.637 8.36707Z" fill="currentColor"/></symbol><symbol viewBox="0 0 25 20" fill="none" id="telegram"><path d="M22.8383 0.139211L1.58656 8.2785C0.136213 8.85707 0.144604 9.66064 1.32046 10.019L6.77663 11.7094L19.4006 3.79873C19.9975 3.43802 20.5429 3.63207 20.0946 4.02731L9.8667 13.1952H9.8643L9.8667 13.1964L9.49033 18.7821C10.0417 18.7821 10.285 18.5309 10.5943 18.2344L13.2444 15.6749L18.7569 19.719C19.7734 20.2749 20.5034 19.9892 20.7563 18.7845L24.3749 1.84635C24.7453 0.371354 23.808 -0.296503 22.8383 0.139211Z" fill="currentColor"/></symbol><symbol viewBox="0 0 25 20" fill="none" id="twitter"><path d="M8.29526 19.878C17.3812 19.878 22.3372 12.42 22.3372 5.93156V5.29763C23.3003 4.5962 24.1379 3.73904 24.8151 2.76193C23.9242 3.16934 22.9737 3.43365 21.9992 3.54501C23.0339 2.9304 23.8079 1.9628 24.1769 0.822857C23.2087 1.38301 22.1568 1.78585 21.0607 2.01613C19.1879 0.0533452 16.0734 -0.0464407 14.0772 1.79239C12.793 2.97871 12.2483 4.75814 12.6505 6.45362C8.6887 6.25907 4.99667 4.40189 2.49452 1.34492C1.17928 3.5807 1.8556 6.44776 4.03387 7.8706C3.24771 7.84012 2.47823 7.63631 1.78117 7.274V7.34857C1.78054 9.67762 3.42711 11.6868 5.7234 12.1589C5.00039 12.3512 4.2427 12.3767 3.50824 12.2336C4.15644 14.2306 6.01387 15.5955 8.1263 15.6269C6.38472 16.9938 4.22611 17.7304 2.00644 17.7151C1.63098 17.7151 1.21798 17.6779 0.842529 17.6406C3.0532 19.1086 5.65479 19.8876 8.31403 19.878" fill="currentColor"/></symbol><symbol viewBox="0 0 34 34" fill="none" id="wave"><path d="M17 0C17.4627 6.10348e-05 17.9092 0.169928 18.2549 0.477381C18.6007 0.784833 18.8215 1.20849 18.8757 1.66799L18.8889 1.88901V32.1131C18.8884 32.5946 18.704 33.0577 18.3735 33.4077C18.043 33.7579 17.5913 33.9685 17.1107 33.9967C16.6301 34.025 16.1568 33.8686 15.7876 33.5596C15.4185 33.2505 15.1812 32.8122 15.1243 32.3341L15.1111 32.1131V1.88901C15.1111 1.38801 15.3101 0.907534 15.6644 0.553277C16.0186 0.19902 16.499 0 17 0ZM9.44444 5.66702C9.94541 5.66702 10.4259 5.86604 10.7801 6.22029C11.1343 6.57455 11.3333 7.05503 11.3333 7.55602V26.4461C11.3333 26.9471 11.1343 27.4275 10.7801 27.7818C10.4259 28.1361 9.94541 28.3351 9.44444 28.3351C8.94348 28.3351 8.46303 28.1361 8.1088 27.7818C7.75456 27.4275 7.55556 26.9471 7.55556 26.4461V7.55602C7.55556 7.05503 7.75456 6.57455 8.1088 6.22029C8.46303 5.86604 8.94348 5.66702 9.44444 5.66702ZM24.5556 5.66702C25.0565 5.66702 25.537 5.86604 25.8912 6.22029C26.2454 6.57455 26.4444 7.05503 26.4444 7.55602V26.4461C26.4444 26.9471 26.2454 27.4275 25.8912 27.7818C25.537 28.1361 25.0565 28.3351 24.5556 28.3351C24.0546 28.3351 23.5741 28.1361 23.2199 27.7818C22.8657 27.4275 22.6667 26.9471 22.6667 26.4461V7.55602C22.6667 7.05503 22.8657 6.57455 23.2199 6.22029C23.5741 5.86604 24.0546 5.66702 24.5556 5.66702ZM1.88889 11.334C2.38985 11.334 2.8703 11.5331 3.22453 11.8873C3.57877 12.2416 3.77778 12.722 3.77778 13.223V20.7791C3.77778 21.2801 3.57877 21.7605 3.22453 22.1148C2.8703 22.469 2.38985 22.6681 1.88889 22.6681C1.38792 22.6681 0.907478 22.469 0.553243 22.1148C0.199007 21.7605 0 21.2801 0 20.7791V13.223C0 12.722 0.199007 12.2416 0.553243 11.8873C0.907478 11.5331 1.38792 11.334 1.88889 11.334ZM32.1111 11.334C32.5738 11.3341 33.0203 11.504 33.366 11.8114C33.7118 12.1189 33.9326 12.5425 33.9868 13.002L34 13.223V20.7791C33.9995 21.2605 33.8151 21.7236 33.4846 22.0737C33.1541 22.4238 32.7024 22.6345 32.2218 22.6627C31.7412 22.6909 31.268 22.5346 30.8988 22.2255C30.5296 21.9165 30.2923 21.4782 30.2354 21.0001L30.2222 20.7791V13.223C30.2222 12.722 30.4212 12.2416 30.7755 11.8873C31.1297 11.5331 31.6101 11.334 32.1111 11.334Z" fill="currentColor"/><path d="M17 0C17.4627 6.10348e-05 17.9092 0.169928 18.2549 0.477381C18.6007 0.784833 18.8215 1.20849 18.8757 1.66799L18.8889 1.88901V32.1131C18.8884 32.5946 18.704 33.0577 18.3735 33.4078C18.043 33.7579 17.5913 33.9685 17.1107 33.9967C16.6301 34.025 16.1568 33.8686 15.7877 33.5596C15.4185 33.2505 15.1812 32.8122 15.1243 32.3341L15.1111 32.1131V1.88901C15.1111 1.38801 15.3101 0.907534 15.6644 0.553277C16.0186 0.19902 16.499 0 17 0ZM1.88889 11.334C2.38985 11.334 2.8703 11.5331 3.22453 11.8873C3.57877 12.2416 3.77778 12.722 3.77778 13.223V20.7791C3.77778 21.2801 3.57877 21.7605 3.22453 22.1148C2.8703 22.469 2.38985 22.6681 1.88889 22.6681C1.38792 22.6681 0.907478 22.469 0.553243 22.1148C0.199007 21.7605 0 21.2801 0 20.7791V13.223C0 12.722 0.199007 12.2416 0.553243 11.8873C0.907478 11.5331 1.38792 11.334 1.88889 11.334ZM32.1111 11.334C32.5738 11.3341 33.0203 11.504 33.366 11.8114C33.7118 12.1189 33.9326 12.5425 33.9868 13.002L34 13.223V20.7791C33.9995 21.2605 33.8151 21.7236 33.4846 22.0737C33.1541 22.4238 32.7024 22.6345 32.2218 22.6627C31.7412 22.6909 31.268 22.5346 30.8988 22.2255C30.5296 21.9165 30.2923 21.4782 30.2354 21.0001L30.2222 20.7791V13.223C30.2222 12.722 30.4212 12.2416 30.7755 11.8873C31.1297 11.5331 31.6101 11.334 32.1111 11.334Z" fill="currentColor"/></symbol><symbol viewBox="0 0 34 34" fill="none" id="whatsapp"><path d="M17.0014 2.83337C24.8257 2.83337 31.1681 9.17579 31.1681 17C31.1681 24.8243 24.8257 31.1667 17.0014 31.1667C14.4978 31.1707 12.0383 30.5082 9.87557 29.2471L2.8404 31.1667L4.75574 24.1287C3.49362 21.9653 2.83055 19.5047 2.83474 17C2.83474 9.17579 9.17715 2.83337 17.0014 2.83337ZM12.1734 10.3417L11.8901 10.353C11.7066 10.3642 11.5274 10.4124 11.3631 10.4947C11.2094 10.5817 11.0691 10.6905 10.9466 10.8177C10.7766 10.9778 10.6802 11.1166 10.5768 11.2512C10.0528 11.9325 9.7707 12.7689 9.77499 13.6284C9.77782 14.3225 9.95915 14.9983 10.2425 15.6301C10.8219 16.908 11.7753 18.2609 13.0333 19.5146C13.3365 19.8164 13.634 20.1195 13.9542 20.4015C15.5173 21.7777 17.38 22.7702 19.3942 23.3L20.1988 23.4232C20.4609 23.4374 20.723 23.4175 20.9865 23.4048C21.3991 23.3835 21.8019 23.2718 22.1666 23.0775C22.3521 22.982 22.5331 22.878 22.7092 22.7659C22.7092 22.7659 22.7701 22.7262 22.8862 22.6384C23.0775 22.4967 23.1951 22.3961 23.3537 22.2304C23.4713 22.1085 23.5733 21.9655 23.6512 21.8025C23.7617 21.5716 23.8722 21.131 23.9176 20.7641C23.9516 20.4836 23.9417 20.3306 23.9374 20.2357C23.9317 20.0841 23.8057 19.9269 23.6682 19.8603L22.8437 19.4905C22.8437 19.4905 21.6112 18.9536 20.8576 18.6108C20.7787 18.5764 20.6942 18.5567 20.6082 18.5527C20.5113 18.5428 20.4134 18.5537 20.321 18.5847C20.2286 18.6157 20.144 18.6662 20.0727 18.7326C20.0657 18.7298 19.9707 18.8105 18.9465 20.0515C18.8877 20.1305 18.8067 20.1902 18.7139 20.223C18.621 20.2558 18.5205 20.2602 18.4252 20.2357C18.3329 20.211 18.2424 20.1797 18.1546 20.1422C17.9789 20.0685 17.918 20.0402 17.7976 19.9892C16.9845 19.6344 16.2317 19.155 15.5663 18.5683C15.3878 18.4125 15.2221 18.2425 15.0521 18.0781C14.4947 17.5444 14.009 16.9405 13.6071 16.2818L13.5235 16.1472C13.4635 16.0568 13.4149 15.9592 13.379 15.8568C13.3252 15.6485 13.4654 15.4814 13.4654 15.4814C13.4654 15.4814 13.8097 15.1045 13.9697 14.9005C14.1256 14.7022 14.2573 14.5095 14.3423 14.3721C14.5095 14.103 14.5619 13.8267 14.4741 13.6128C14.0774 12.6438 13.6666 11.679 13.2444 10.7214C13.1608 10.5315 12.9129 10.3955 12.6877 10.3686C12.6112 10.3601 12.5347 10.3516 12.4582 10.346C12.2679 10.3365 12.0773 10.3384 11.8872 10.3516L12.1734 10.3417Z" fill="currentColor"/></symbol></defs></svg>