<svg width="1920" height="984" viewBox="0 0 1920 984" fill="none" xmlns="http://www.w3.org/2000/svg">
<g opacity="0.52">
<path d="M-85.1381 930.085C300.586 1029.27 437.569 554.388 660.479 468.725C981.729 345.282 1198.84 684.07 1300.93 469.258C1403.03 254.446 1503.1 63.584 1750.18 277.143C1997.27 490.702 2083.34 308.706 2083.34 308.706" stroke="#11262B" stroke-width="0.6482" stroke-miterlimit="10"/>
<path d="M2080.65 302.074C2077.5 301.921 1988.27 490.307 1743.04 282.625C1497.81 74.9423 1397.18 250.519 1293.55 462.429C1189.49 674.545 979.248 355.999 655.454 479.358C431.303 564.837 290.771 1017.01 -88.5451 918.09" stroke="#11262B" stroke-width="0.6553" stroke-miterlimit="10"/>
<path d="M2077.94 295.487C2071.65 295.18 1979.22 489.955 1735.87 288.149C1492.53 86.3429 1391.33 246.634 1286.14 455.643C1180.12 665.063 976.767 366.737 650.407 490.034C425.037 575.306 280.932 1004.73 -91.9299 906.094" stroke="#11262B" stroke-width="0.6623" stroke-miterlimit="10"/>
<path d="M2075.25 288.878C2065.81 288.417 1970.21 489.581 1728.73 293.652C1487.24 97.7218 1385.48 242.729 1278.73 448.858C1170.72 655.582 974.287 377.497 645.361 500.709C418.772 585.755 271.118 992.471 -95.3367 894.078" stroke="#11262B" stroke-width="0.6694" stroke-miterlimit="10"/>
<path d="M2072.54 282.27C2059.98 281.655 1961.17 489.209 1721.56 299.155C1481.96 109.1 1380.11 239.07 1271.33 442.052C1161.84 646.305 971.828 388.212 640.314 511.385C412.506 596.224 261.282 980.212 -98.7205 882.084" stroke="#11262B" stroke-width="0.6764" stroke-miterlimit="10"/>
<path d="M2069.82 275.682C2054.12 274.892 1952.14 488.856 1714.4 304.678C1476.67 120.477 1374.36 235.227 1263.92 435.266C1152.59 636.885 969.347 398.97 635.266 522.037C406.24 606.67 251.467 967.932 -102.105 870.089" stroke="#11262B" stroke-width="0.6835" stroke-miterlimit="10"/>
<path d="M2067.14 269.073C2048.29 268.13 1943.11 488.482 1707.25 310.179C1471.39 131.854 1368.62 231.383 1256.51 428.46C1143.31 627.446 966.866 409.684 630.219 532.689C399.974 617.138 241.63 955.674 -105.512 858.074" stroke="#11262B" stroke-width="0.6905" stroke-miterlimit="10"/>
<path d="M2064.43 262.465C2042.44 261.368 1934.09 488.108 1700.08 315.658C1466.08 143.209 1362.87 227.54 1249.1 421.654C1134.04 618.007 964.384 420.419 625.171 543.34C393.708 627.605 231.816 943.395 -108.896 846.081" stroke="#11262B" stroke-width="0.6976" stroke-miterlimit="10"/>
<path d="M2061.72 255.856C2036.58 254.606 1925.04 487.733 1692.92 321.158C1460.8 154.605 1357.09 223.697 1241.7 414.87C1124.76 608.589 961.903 431.152 620.125 554.011C387.419 638.049 221.98 931.137 -112.302 834.089" stroke="#11262B" stroke-width="0.7046" stroke-miterlimit="10"/>
<path d="M2059.03 249.268C2030.75 247.866 1916.04 487.379 1685.78 326.679C1455.51 165.979 1351.33 219.876 1234.29 408.064C1115.49 599.15 959.42 441.864 615.076 564.661C381.152 648.515 212.166 918.859 -115.687 822.075" stroke="#11262B" stroke-width="0.7117" stroke-miterlimit="10"/>
<path d="M2056.32 242.66C2024.9 241.104 1906.99 487.005 1678.61 332.178C1450.23 177.352 1345.55 216.033 1226.89 401.258C1106.19 589.712 956.939 452.596 610.052 575.33C374.908 658.957 202.353 906.602 -119.071 810.083" stroke="#11262B" stroke-width="0.7187" stroke-miterlimit="10"/>
<path d="M2053.61 236.051C2019.07 234.341 1897.97 486.629 1671.44 337.677C1444.94 188.724 1339.77 212.19 1219.48 394.474C1096.89 580.275 954.479 463.326 605.003 585.978C368.619 669.421 192.517 894.347 -122.478 798.092" stroke="#11262B" stroke-width="0.7257" stroke-miterlimit="10"/>
<path d="M2050.92 229.442C2013.24 227.58 1888.94 486.254 1664.3 343.175C1439.66 200.095 1333.97 208.348 1212.08 387.669C1087.57 570.839 951.974 474.058 599.932 596.626C362.351 679.863 182.704 882.071 -125.863 786.079" stroke="#11262B" stroke-width="0.7328" stroke-miterlimit="10"/>
<path d="M2048.22 222.845C2007.39 220.808 1879.93 485.893 1657.14 348.684C1434.36 211.475 1328.17 204.493 1204.67 380.874C1078.28 561.415 949.493 484.777 594.883 607.285C356.082 690.316 172.866 869.809 -129.274 774.08" stroke="#11262B" stroke-width="0.7398" stroke-miterlimit="10"/>
<path d="M2045.54 216.223C2001.57 214.032 1870.91 485.509 1650 354.168C1429.07 222.807 1322.38 200.634 1197.29 374.054C1068.98 551.945 947.058 495.492 589.857 617.917C349.812 700.745 163.05 857.524 -132.664 762.077" stroke="#11262B" stroke-width="0.7469" stroke-miterlimit="10"/>
<path d="M2042.84 209.603C1995.73 207.258 1861.9 485.147 1642.85 359.655C1423.79 234.162 1316.58 196.754 1189.89 367.236C1059.64 542.5 944.554 506.21 584.807 628.574C343.542 711.196 153.212 845.262 -136.056 750.054" stroke="#11262B" stroke-width="0.7539" stroke-miterlimit="10"/>
<path d="M2040.15 203.004C1989.88 200.507 1852.86 484.787 1635.69 365.141C1418.51 245.495 1310.76 192.896 1182.49 360.44C1050.32 533.055 942.095 516.927 579.78 639.209C337.271 721.627 143.417 832.979 -139.447 738.052" stroke="#11262B" stroke-width="0.761" stroke-miterlimit="10"/>
<path d="M2037.47 196.385C1984.06 193.734 1843.85 484.407 1628.55 370.629C1413.23 256.873 1304.96 189.018 1175.09 353.623C1040.98 523.612 939.613 527.625 574.73 649.845C330.978 732.081 133.555 820.72 -142.862 726.053" stroke="#11262B" stroke-width="0.768" stroke-miterlimit="10"/>
<path d="M2034.77 189.768C1978.22 186.964 1834.84 484.028 1621.39 376.118C1407.95 268.23 1299.11 185.163 1167.69 346.808C1031.64 514.149 937.132 538.346 569.679 660.484C324.729 742.514 123.737 808.441 -146.255 714.033" stroke="#11262B" stroke-width="0.7751" stroke-miterlimit="10"/>
<path d="M2032.08 183.152C1972.4 180.194 1825.8 483.653 1614.24 381.61C1402.65 279.567 1293.27 181.287 1160.28 339.994C1022.28 504.689 934.649 549.047 564.628 671.125C318.434 752.95 113.918 796.164 -149.673 702.016" stroke="#11262B" stroke-width="0.7821" stroke-miterlimit="10"/>
<path d="M2029.4 176.561C1966.58 173.449 1816.81 483.302 1607.1 387.126C1397.37 290.951 1287.42 177.414 1152.88 333.205C1012.92 495.254 932.167 559.795 559.576 681.812C312.161 763.433 104.076 783.934 -153.069 690.044" stroke="#11262B" stroke-width="0.7892" stroke-miterlimit="10"/>
<path d="M2026.71 169.95C1960.74 166.664 1807.78 482.934 1599.95 392.624C1392.09 302.315 1281.58 173.543 1145.48 326.418C1003.55 485.799 929.685 570.524 554.523 692.46C305.886 773.876 94.2304 771.663 -156.491 678.053" stroke="#11262B" stroke-width="0.7962" stroke-miterlimit="10"/>
<path d="M2024.01 163.343C1954.93 159.923 1798.77 482.569 1592.79 398.126C1386.81 313.682 1275.73 169.673 1138.07 319.611C994.186 476.347 927.202 581.236 549.469 703.111C299.61 784.323 84.4076 759.417 -159.892 666.043" stroke="#11262B" stroke-width="0.8033" stroke-miterlimit="10"/>
<path d="M2021.34 156.759C1949.09 153.165 1789.76 482.23 1585.63 403.653C1381.51 325.054 1269.86 165.786 1130.67 312.808C984.797 466.877 924.718 591.973 544.415 713.767C293.31 794.775 74.559 747.153 -163.318 654.036" stroke="#11262B" stroke-width="0.8103" stroke-miterlimit="10"/>
<path d="M2018.65 150.155C1943.25 146.407 1780.75 481.871 1578.48 409.159C1376.23 336.426 1264 161.92 1123.27 306.026C975.408 457.43 922.258 602.712 539.36 724.446C287.033 805.271 64.7328 734.911 -166.722 642.05" stroke="#11262B" stroke-width="0.8173" stroke-miterlimit="10"/>
<path d="M2015.98 143.551C1937.44 139.649 1771.75 481.513 1571.35 414.646C1370.95 347.8 1258.13 158.033 1115.86 299.224C966.018 447.962 919.775 613.453 534.305 735.106C280.755 815.727 54.9056 722.669 -170.127 630.065" stroke="#11262B" stroke-width="0.8244" stroke-miterlimit="10"/>
<path d="M2013.29 136.95C1931.6 132.894 1762.74 481.157 1564.19 420.178C1365.67 359.176 1252.23 154.127 1108.46 292.445C956.628 438.517 917.292 624.197 529.249 745.789C274.476 826.206 45.0547 710.43 -173.556 618.082" stroke="#11262B" stroke-width="0.8314" stroke-miterlimit="10"/>
<path d="M2010.6 130.37C1925.78 126.159 1753.71 480.824 1557.04 425.69C1360.39 370.554 1246.34 150.243 1101.05 285.644C947.214 429.029 914.808 634.942 524.193 756.453C268.174 836.666 35.2022 698.169 -176.986 606.078" stroke="#11262B" stroke-width="0.8385" stroke-miterlimit="10"/>
<path d="M2007.93 123.767C1919.97 119.381 1744.7 480.469 1549.91 431.201C1355.11 381.932 1240.45 146.337 1093.67 278.842C937.823 419.541 912.348 645.666 519.161 767.117C261.919 847.147 25.3735 685.928 -180.37 594.093" stroke="#11262B" stroke-width="0.8455" stroke-miterlimit="10"/>
<path d="M2005.23 117.166C1914.13 112.647 1735.69 480.115 1542.75 436.713C1349.81 393.312 1234.55 142.431 1086.27 272.063C928.406 410.053 909.865 656.434 514.105 777.804C255.639 857.608 15.542 673.666 -183.801 582.11" stroke="#11262B" stroke-width="0.8526" stroke-miterlimit="10"/>
<path d="M2002.54 110.564C1908.29 105.87 1726.69 479.76 1535.6 442.226C1344.53 404.692 1228.63 138.504 1078.84 265.262C918.946 400.565 907.359 667.16 509.026 788.47C249.361 868.09 5.68924 661.425 -187.209 570.125" stroke="#11262B" stroke-width="0.8596" stroke-miterlimit="10"/>
<path d="M1999.87 103.984C1902.48 99.1352 1717.68 479.427 1528.46 447.739C1339.25 416.073 1222.74 134.577 1071.45 258.461C909.529 391.056 904.898 677.909 503.993 799.158C243.081 878.553 -4.14255 649.162 -190.641 558.12" stroke="#11262B" stroke-width="0.8667" stroke-miterlimit="10"/>
<path d="M1997.18 97.3818C1896.64 92.3791 1708.65 479.073 1521.31 453.275C1333.97 427.455 1216.82 130.672 1064.05 251.682C900.089 381.546 902.415 688.658 498.937 809.825C236.779 889.038 -13.9967 636.921 -194.05 546.136" stroke="#11262B" stroke-width="0.8737" stroke-miterlimit="10"/>
<path d="M1994.49 90.7797C1890.83 85.6222 1699.64 478.719 1514.15 458.789C1328.69 438.837 1210.9 126.724 1056.64 244.88C890.649 372.036 899.932 699.408 493.882 820.515C230.499 899.524 -23.8291 624.657 -197.458 534.15" stroke="#11262B" stroke-width="0.8808" stroke-miterlimit="10"/>
<path d="M1991.82 84.1977C1885.01 78.886 1690.63 478.385 1507.02 464.302C1323.39 450.219 1204.98 122.775 1049.24 238.1C881.208 362.503 897.449 710.157 488.825 831.183C224.22 909.987 -33.6838 612.414 -200.891 522.143" stroke="#11262B" stroke-width="0.8878" stroke-miterlimit="10"/>
<path d="M1989.13 77.5945C1879.17 72.1285 1681.62 478.03 1499.87 469.816C1318.11 461.602 1199.04 118.827 1041.83 231.297C871.743 352.948 894.988 720.885 483.792 841.85C217.94 920.472 -43.5161 600.17 -204.3 510.157" stroke="#11262B" stroke-width="0.8949" stroke-miterlimit="10"/>
<path d="M1986.43 70.9922C1873.33 65.3719 1672.59 477.676 1492.71 475.331C1312.83 472.986 1193.12 114.879 1034.42 224.496C862.302 343.394 892.506 731.636 478.736 852.52C211.66 930.937 -53.3721 587.906 -207.732 498.172" stroke="#11262B" stroke-width="0.9019" stroke-miterlimit="10"/>
<path d="M1983.76 64.3877C1867.52 58.6132 1663.6 477.319 1485.58 480.844C1307.55 484.369 1187.18 110.887 1027.01 217.692C852.836 333.839 890.022 742.365 473.679 863.189C205.381 941.423 -63.2052 575.661 -211.142 486.163" stroke="#11262B" stroke-width="0.9089" stroke-miterlimit="10"/>
<path d="M1981.07 57.8058C1861.68 51.8554 1654.57 476.986 1478.42 486.381C1302.28 495.776 1181.26 106.939 1019.61 210.911C843.371 324.284 887.54 753.139 468.624 873.881C199.101 951.889 -73.0386 563.394 -214.551 474.176" stroke="#11262B" stroke-width="0.916" stroke-miterlimit="10"/>
<path d="M1978.4 51.2013C1855.86 45.0965 1645.56 476.631 1471.27 491.896C1296.97 507.161 1175.32 102.947 1012.2 204.13C833.905 314.729 885.057 763.89 463.567 884.572C192.821 962.376 -82.8952 551.149 -217.983 462.189" stroke="#11262B" stroke-width="0.923" stroke-miterlimit="10"/>
<path d="M1975.71 44.5972C1850.05 38.3376 1636.55 476.275 1464.14 497.41C1291.72 518.545 1169.4 98.955 1004.82 197.326C824.461 305.129 882.598 774.642 458.535 895.242C186.519 972.843 -92.7279 538.903 -221.393 450.179" stroke="#11262B" stroke-width="0.9301" stroke-miterlimit="10"/>
<path d="M1973.02 37.9929C1844.21 31.5789 1627.54 475.919 1456.98 502.925C1286.42 529.931 1163.45 94.9419 997.385 190.523C814.97 295.509 880.092 785.374 453.455 905.913C180.24 983.33 -102.585 526.636 -224.825 438.191" stroke="#11262B" stroke-width="0.9371" stroke-miterlimit="10"/>
<path d="M1970.35 31.409C1838.39 24.8406 1618.53 475.584 1449.85 508.461C1281.14 541.317 1157.51 90.9283 989.977 183.741C805.502 285.93 877.608 796.126 448.399 916.606C173.959 993.796 -112.42 514.388 -228.236 426.202" stroke="#11262B" stroke-width="0.9442" stroke-miterlimit="10"/>
<path d="M1967.65 24.8042C1832.55 18.0815 1609.52 475.227 1442.69 513.955C1275.86 552.703 1151.56 86.915 982.593 176.936C796.057 276.308 875.15 806.879 443.366 927.276C167.68 1004.28 -122.277 502.12 -231.645 414.192" stroke="#11262B" stroke-width="0.9512" stroke-miterlimit="10"/>
<path d="M1964.96 18.1991C1826.73 11.3214 1600.51 474.871 1435.53 519.491C1270.58 564.09 1145.47 82.6246 975.185 170.154C786.418 266.388 872.667 817.632 438.311 937.969C161.401 1014.77 -132.111 489.872 -235.078 402.203" stroke="#11262B" stroke-width="0.9583" stroke-miterlimit="10"/>
<path d="M1962.29 11.6141C1820.89 4.56101 1591.5 474.535 1428.4 525.006C1265.3 575.476 1139.62 78.7159 967.777 163.348C777.044 256.87 870.207 828.385 433.254 948.641C155.12 1025.24 -141.969 477.624 -238.488 390.213" stroke="#11262B" stroke-width="0.9653" stroke-miterlimit="10"/>
<path d="M1959.6 5.08559C1815.05 -2.1269 1582.45 474.243 1421.23 530.579C1260 586.916 1133.77 74.8561 960.365 156.586C767.663 247.41 867.695 839.156 428.165 959.336C148.805 1035.74 -151.819 465.357 -241.932 378.202" stroke="#11262B" stroke-width="0.9724" stroke-miterlimit="10"/>
</g>
</svg>
