<svg width="1919" height="979" viewBox="0 0 1919 979" fill="none" xmlns="http://www.w3.org/2000/svg">
<g opacity="0.2">
<path d="M1.72124 951.417L3.38219 952.241L5.08112 951.501L4.26736 953.181L4.99854 954.9L3.33758 954.077L1.63865 954.817L2.45241 953.136L1.72124 951.417Z" fill="#6F6C7D"/>
<path d="M1113.93 973.859L1115.59 974.682L1117.29 973.943L1116.48 975.623L1117.21 977.342L1115.55 976.519L1113.85 977.259L1114.66 975.578L1113.93 973.859Z" fill="#6F6C7D"/>
<g filter="url(#filter0_f_101_855)">
<path d="M530.891 951.417L532.552 952.241L534.251 951.501L533.438 953.181L534.169 954.9L532.508 954.077L530.809 954.817L531.623 953.136L530.891 951.417Z" fill="white"/>
</g>
<g filter="url(#filter1_f_101_855)">
<path d="M1228 911.344L1229.66 912.167L1231.36 911.428L1230.55 913.108L1231.28 914.827L1229.62 914.004L1227.92 914.743L1228.73 913.063L1228 911.344Z" fill="white"/>
</g>
<path d="M857.268 904.931L858.929 905.754L860.628 905.014L859.814 906.695L860.545 908.414L858.884 907.59L857.185 908.33L857.999 906.65L857.268 904.931Z" fill="#6F6C7D"/>
<g filter="url(#filter2_f_101_855)">
<path d="M1009.06 890.945L1013.49 893.14L1018.02 891.168L1015.85 895.649L1017.8 900.233L1013.38 898.037L1008.84 900.01L1011.01 895.529L1009.06 890.945Z" fill="#868592"/>
</g>
<g filter="url(#filter3_f_101_855)">
<path d="M163.325 789.516L164.986 790.339L166.685 789.599L165.871 791.28L166.602 792.999L164.941 792.176L163.242 792.915L164.056 791.235L163.325 789.516Z" fill="white"/>
</g>
<g filter="url(#filter4_f_101_855)">
<path d="M1571.81 783.103L1573.47 783.926L1575.17 783.186L1574.35 784.867L1575.08 786.586L1573.42 785.762L1571.72 786.502L1572.54 784.822L1571.81 783.103Z" fill="white"/>
</g>
<path d="M25.4866 725.398L27.1475 726.221L28.8464 725.481L28.0327 727.162L28.7639 728.881L27.1029 728.057L25.404 728.797L26.2177 727.117L25.4866 725.398Z" fill="#6F6C7D"/>
<path d="M421.572 722.191L423.233 723.015L424.932 722.275L424.119 723.955L424.85 725.674L423.189 724.851L421.49 725.591L422.304 723.91L421.572 722.191Z" fill="#6F6C7D"/>
<g filter="url(#filter5_f_101_855)">
<path d="M1146.9 652.103L1151.33 654.299L1155.86 652.326L1153.69 656.807L1155.64 661.391L1151.21 659.196L1146.68 661.168L1148.85 656.687L1146.9 652.103Z" fill="#868592"/>
</g>
<g filter="url(#filter6_f_101_855)">
<path d="M781.218 642.04L782.879 642.863L784.578 642.123L783.764 643.804L784.495 645.523L782.834 644.699L781.135 645.439L781.949 643.759L781.218 642.04Z" fill="white"/>
</g>
<path d="M925.394 609.983L927.055 610.806L928.754 610.066L927.94 611.747L928.672 613.466L927.011 612.642L925.312 613.382L926.126 611.702L925.394 609.983Z" fill="#6F6C7D"/>
<g filter="url(#filter7_f_101_855)">
<path d="M343.639 602.41L348.068 604.605L352.599 602.633L350.429 607.114L352.379 611.698L347.95 609.502L343.419 611.475L345.589 606.994L343.639 602.41Z" fill="#6E6B7C"/>
</g>
<path d="M1636.76 592.347L1638.43 593.17L1640.12 592.431L1639.31 594.111L1640.04 595.83L1638.38 595.007L1636.68 595.746L1637.5 594.066L1636.76 592.347Z" fill="#6F6C7D"/>
<path d="M1267.61 505.787L1269.27 506.61L1270.97 505.871L1270.16 507.551L1270.89 509.27L1269.23 508.447L1267.53 509.187L1268.34 507.506L1267.61 505.787Z" fill="white"/>
<path d="M1723.9 504.184L1725.56 505.007L1727.26 504.267L1726.45 505.948L1727.18 507.667L1725.52 506.843L1723.82 507.583L1724.63 505.903L1723.9 504.184Z" fill="#6F6C7D"/>
<path d="M618.032 502.58L619.692 503.404L621.391 502.664L620.578 504.344L621.309 506.063L619.648 505.24L617.949 505.98L618.763 504.299L618.032 502.58Z" fill="white"/>
<g filter="url(#filter8_f_101_855)">
<path d="M132.922 469.363L137.352 471.559L141.882 469.586L139.712 474.067L141.662 478.651L137.233 476.456L132.702 478.428L134.872 473.947L132.922 469.363Z" fill="white"/>
</g>
<path d="M25.4866 465.714L27.1475 466.537L28.8464 465.797L28.0327 467.478L28.7639 469.197L27.1029 468.373L25.404 469.113L26.2177 467.433L25.4866 465.714Z" fill="#6F6C7D"/>
<g filter="url(#filter9_f_101_855)">
<path d="M850.929 409.607L852.59 410.431L854.289 409.691L853.475 411.372L854.207 413.09L852.546 412.267L850.847 413.007L851.66 411.326L850.929 409.607Z" fill="white"/>
</g>
<path d="M286.903 406.405L288.564 407.228L290.263 406.489L289.449 408.169L290.181 409.888L288.52 409.065L286.821 409.804L287.635 408.124L286.903 406.405Z" fill="#6F6C7D"/>
<g filter="url(#filter10_f_101_855)">
<path d="M1437.14 383.963L1438.8 384.787L1440.5 384.047L1439.68 385.727L1440.42 387.446L1438.75 386.623L1437.06 387.363L1437.87 385.682L1437.14 383.963Z" fill="white"/>
</g>
<g filter="url(#filter11_f_101_855)">
<path d="M1652.31 377.994L1656.74 380.189L1661.27 378.216L1659.1 382.698L1661.05 387.282L1656.62 385.086L1652.09 387.059L1654.26 382.577L1652.31 377.994Z" fill="#6E6B7C"/>
</g>
<path d="M1730.24 326.254L1731.9 327.077L1733.6 326.337L1732.79 328.018L1733.52 329.737L1731.86 328.913L1730.16 329.653L1730.97 327.973L1730.24 326.254Z" fill="white"/>
<g filter="url(#filter12_f_101_855)">
<path d="M1308.5 294.636L1312.93 296.832L1317.46 294.859L1315.29 299.34L1317.24 303.924L1312.81 301.728L1308.28 303.701L1310.45 299.22L1308.5 294.636Z" fill="white"/>
</g>
<g filter="url(#filter13_f_101_855)">
<path d="M658.923 291.429L663.352 293.625L667.883 291.652L665.713 296.134L667.663 300.717L663.233 298.522L658.703 300.495L660.873 296.013L658.923 291.429Z" fill="#868592"/>
</g>
<path d="M1552.79 270.148L1554.45 270.971L1556.15 270.231L1555.34 271.912L1556.07 273.631L1554.41 272.807L1552.71 273.547L1553.52 271.867L1552.79 270.148Z" fill="white"/>
<path d="M280.565 252.516L282.226 253.339L283.925 252.599L283.111 254.28L283.842 255.999L282.181 255.176L280.482 255.915L281.296 254.235L280.565 252.516Z" fill="white"/>
<path d="M424.741 220.459L426.402 221.282L428.101 220.542L427.288 222.223L428.019 223.942L426.358 223.118L424.659 223.858L425.473 222.178L424.741 220.459Z" fill="#6F6C7D"/>
<path d="M1882.34 196.414L1884 197.237L1885.7 196.497L1884.88 198.178L1885.61 199.897L1883.95 199.073L1882.25 199.813L1883.07 198.133L1882.34 196.414Z" fill="#6F6C7D"/>
<g filter="url(#filter14_f_101_855)">
<path d="M1520.81 172.812L1525.24 175.008L1529.77 173.035L1527.6 177.516L1529.55 182.1L1525.12 179.905L1520.59 181.877L1522.76 177.396L1520.81 172.812Z" fill="white"/>
</g>
<path d="M114.21 161.146L115.87 161.969L117.569 161.23L116.756 162.91L117.487 164.629L115.826 163.806L114.127 164.545L114.941 162.865L114.21 161.146Z" fill="#6F6C7D"/>
<path d="M1617.75 103.441L1619.41 104.264L1621.11 103.524L1620.3 105.205L1621.03 106.924L1619.37 106.1L1617.67 106.84L1618.48 105.16L1617.75 103.441Z" fill="white"/>
<path d="M1811.04 87.4082L1812.7 88.2316L1814.4 87.4918L1813.59 89.1723L1814.32 90.8912L1812.66 90.0679L1810.96 90.8076L1811.77 89.1272L1811.04 87.4082Z" fill="#6F6C7D"/>
<path d="M1443.47 84.2056L1445.14 85.0289L1446.83 84.2892L1446.02 85.9696L1446.75 87.6886L1445.09 86.8652L1443.39 87.605L1444.21 85.9245L1443.47 84.2056Z" fill="#6F6C7D"/>
<path d="M1581.31 28.0995L1582.97 28.9229L1584.67 28.1831L1583.86 29.8636L1584.59 31.5825L1582.93 30.7592L1581.23 31.4989L1582.04 29.8184L1581.31 28.0995Z" fill="#6F6C7D"/>
<path d="M564.162 21.6864L565.823 22.5098L567.522 21.77L566.709 23.4505L567.44 25.1694L565.779 24.3461L564.08 25.0858L564.894 23.4053L564.162 21.6864Z" fill="#6F6C7D"/>
<path d="M358.199 15.2775L359.86 16.1008L361.559 15.3611L360.746 17.0415L361.477 18.7605L359.816 17.9371L358.117 18.6769L358.931 16.9964L358.199 15.2775Z" fill="#6F6C7D"/>
<path d="M1323.06 12.071L1324.73 12.8943L1326.42 12.1545L1325.61 13.835L1326.34 15.5539L1324.68 14.7306L1322.98 15.4704L1323.8 13.7899L1323.06 12.071Z" fill="#6F6C7D"/>
<path d="M1885.51 5.65799L1887.17 6.48132L1888.87 5.74155L1888.05 7.42204L1888.78 9.14096L1887.12 8.31762L1885.42 9.0574L1886.24 7.37691L1885.51 5.65799Z" fill="white"/>
<g filter="url(#filter15_f_101_855)">
<rect width="747.467" height="327.501" transform="matrix(0.867473 -0.497484 0.86545 0.500996 1285 447.853)" fill="url(#paint0_linear_101_855)" fill-opacity="0.2"/>
</g>
<g filter="url(#filter16_f_101_855)">
<rect x="1407.3" y="469.713" width="99.5529" height="102.47" transform="rotate(47.947 1407.3 469.713)" fill="#5CFF82"/>
</g>
</g>
<defs>
<filter id="filter0_f_101_855" x="529.809" y="950.417" width="5.4425" height="5.48291" filterUnits="userSpaceOnUse" color-interpolation-filters="sRGB">
<feFlood flood-opacity="0" result="BackgroundImageFix"/>
<feBlend mode="normal" in="SourceGraphic" in2="BackgroundImageFix" result="shape"/>
<feGaussianBlur stdDeviation="0.5" result="effect1_foregroundBlur_101_855"/>
</filter>
<filter id="filter1_f_101_855" x="1226.92" y="910.344" width="5.4425" height="5.48291" filterUnits="userSpaceOnUse" color-interpolation-filters="sRGB">
<feFlood flood-opacity="0" result="BackgroundImageFix"/>
<feBlend mode="normal" in="SourceGraphic" in2="BackgroundImageFix" result="shape"/>
<feGaussianBlur stdDeviation="0.5" result="effect1_foregroundBlur_101_855"/>
</filter>
<filter id="filter2_f_101_855" x="1007.84" y="889.945" width="11.1799" height="11.2878" filterUnits="userSpaceOnUse" color-interpolation-filters="sRGB">
<feFlood flood-opacity="0" result="BackgroundImageFix"/>
<feBlend mode="normal" in="SourceGraphic" in2="BackgroundImageFix" result="shape"/>
<feGaussianBlur stdDeviation="0.5" result="effect1_foregroundBlur_101_855"/>
</filter>
<filter id="filter3_f_101_855" x="162.242" y="788.516" width="5.44244" height="5.48291" filterUnits="userSpaceOnUse" color-interpolation-filters="sRGB">
<feFlood flood-opacity="0" result="BackgroundImageFix"/>
<feBlend mode="normal" in="SourceGraphic" in2="BackgroundImageFix" result="shape"/>
<feGaussianBlur stdDeviation="0.5" result="effect1_foregroundBlur_101_855"/>
</filter>
<filter id="filter4_f_101_855" x="1570.72" y="782.103" width="5.44238" height="5.48291" filterUnits="userSpaceOnUse" color-interpolation-filters="sRGB">
<feFlood flood-opacity="0" result="BackgroundImageFix"/>
<feBlend mode="normal" in="SourceGraphic" in2="BackgroundImageFix" result="shape"/>
<feGaussianBlur stdDeviation="0.5" result="effect1_foregroundBlur_101_855"/>
</filter>
<filter id="filter5_f_101_855" x="1145.68" y="651.103" width="11.1799" height="11.2878" filterUnits="userSpaceOnUse" color-interpolation-filters="sRGB">
<feFlood flood-opacity="0" result="BackgroundImageFix"/>
<feBlend mode="normal" in="SourceGraphic" in2="BackgroundImageFix" result="shape"/>
<feGaussianBlur stdDeviation="0.5" result="effect1_foregroundBlur_101_855"/>
</filter>
<filter id="filter6_f_101_855" x="780.135" y="641.04" width="5.4425" height="5.48291" filterUnits="userSpaceOnUse" color-interpolation-filters="sRGB">
<feFlood flood-opacity="0" result="BackgroundImageFix"/>
<feBlend mode="normal" in="SourceGraphic" in2="BackgroundImageFix" result="shape"/>
<feGaussianBlur stdDeviation="0.5" result="effect1_foregroundBlur_101_855"/>
</filter>
<filter id="filter7_f_101_855" x="342.419" y="601.41" width="11.1799" height="11.2878" filterUnits="userSpaceOnUse" color-interpolation-filters="sRGB">
<feFlood flood-opacity="0" result="BackgroundImageFix"/>
<feBlend mode="normal" in="SourceGraphic" in2="BackgroundImageFix" result="shape"/>
<feGaussianBlur stdDeviation="0.5" result="effect1_foregroundBlur_101_855"/>
</filter>
<filter id="filter8_f_101_855" x="131.702" y="468.363" width="11.1799" height="11.2878" filterUnits="userSpaceOnUse" color-interpolation-filters="sRGB">
<feFlood flood-opacity="0" result="BackgroundImageFix"/>
<feBlend mode="normal" in="SourceGraphic" in2="BackgroundImageFix" result="shape"/>
<feGaussianBlur stdDeviation="0.5" result="effect1_foregroundBlur_101_855"/>
</filter>
<filter id="filter9_f_101_855" x="849.847" y="408.607" width="5.4425" height="5.48291" filterUnits="userSpaceOnUse" color-interpolation-filters="sRGB">
<feFlood flood-opacity="0" result="BackgroundImageFix"/>
<feBlend mode="normal" in="SourceGraphic" in2="BackgroundImageFix" result="shape"/>
<feGaussianBlur stdDeviation="0.5" result="effect1_foregroundBlur_101_855"/>
</filter>
<filter id="filter10_f_101_855" x="1436.06" y="382.963" width="5.44238" height="5.48291" filterUnits="userSpaceOnUse" color-interpolation-filters="sRGB">
<feFlood flood-opacity="0" result="BackgroundImageFix"/>
<feBlend mode="normal" in="SourceGraphic" in2="BackgroundImageFix" result="shape"/>
<feGaussianBlur stdDeviation="0.5" result="effect1_foregroundBlur_101_855"/>
</filter>
<filter id="filter11_f_101_855" x="1651.09" y="376.994" width="11.1799" height="11.2878" filterUnits="userSpaceOnUse" color-interpolation-filters="sRGB">
<feFlood flood-opacity="0" result="BackgroundImageFix"/>
<feBlend mode="normal" in="SourceGraphic" in2="BackgroundImageFix" result="shape"/>
<feGaussianBlur stdDeviation="0.5" result="effect1_foregroundBlur_101_855"/>
</filter>
<filter id="filter12_f_101_855" x="1307.28" y="293.636" width="11.1799" height="11.2878" filterUnits="userSpaceOnUse" color-interpolation-filters="sRGB">
<feFlood flood-opacity="0" result="BackgroundImageFix"/>
<feBlend mode="normal" in="SourceGraphic" in2="BackgroundImageFix" result="shape"/>
<feGaussianBlur stdDeviation="0.5" result="effect1_foregroundBlur_101_855"/>
</filter>
<filter id="filter13_f_101_855" x="657.703" y="290.429" width="11.1799" height="11.2878" filterUnits="userSpaceOnUse" color-interpolation-filters="sRGB">
<feFlood flood-opacity="0" result="BackgroundImageFix"/>
<feBlend mode="normal" in="SourceGraphic" in2="BackgroundImageFix" result="shape"/>
<feGaussianBlur stdDeviation="0.5" result="effect1_foregroundBlur_101_855"/>
</filter>
<filter id="filter14_f_101_855" x="1519.59" y="171.812" width="11.1799" height="11.2878" filterUnits="userSpaceOnUse" color-interpolation-filters="sRGB">
<feFlood flood-opacity="0" result="BackgroundImageFix"/>
<feBlend mode="normal" in="SourceGraphic" in2="BackgroundImageFix" result="shape"/>
<feGaussianBlur stdDeviation="0.5" result="effect1_foregroundBlur_101_855"/>
</filter>
<filter id="filter15_f_101_855" x="1209.8" y="0.800003" width="1082.24" height="686.33" filterUnits="userSpaceOnUse" color-interpolation-filters="sRGB">
<feFlood flood-opacity="0" result="BackgroundImageFix"/>
<feBlend mode="normal" in="SourceGraphic" in2="BackgroundImageFix" result="shape"/>
<feGaussianBlur stdDeviation="37.6" result="effect1_foregroundBlur_101_855"/>
</filter>
<filter id="filter16_f_101_855" x="1003.11" y="141.613" width="798.969" height="798.757" filterUnits="userSpaceOnUse" color-interpolation-filters="sRGB">
<feFlood flood-opacity="0" result="BackgroundImageFix"/>
<feBlend mode="normal" in="SourceGraphic" in2="BackgroundImageFix" result="shape"/>
<feGaussianBlur stdDeviation="164.05" result="effect1_foregroundBlur_101_855"/>
</filter>
<linearGradient id="paint0_linear_101_855" x1="537.498" y1="54.156" x2="-47.8598" y2="153.596" gradientUnits="userSpaceOnUse">
<stop offset="0.32" stop-color="#5CFF82" stop-opacity="0.46"/>
<stop offset="1" stop-color="#295B66" stop-opacity="0"/>
</linearGradient>
</defs>
</svg>
