<svg width="13" height="13" viewBox="0 0 13 13" fill="none" xmlns="http://www.w3.org/2000/svg">
<path d="M1.48218 5.73488C1.03838 5.73488 0.678606 6.09465 0.678606 6.53845C0.678606 6.98225 1.03838 7.34202 1.48218 7.34202L1.48218 5.73488ZM12.4968 7.10666C12.8106 6.79285 12.8106 6.28406 12.4968 5.97024L7.38292 0.856344C7.06911 0.54253 6.56031 0.54253 6.2465 0.856344C5.93268 1.17016 5.93268 1.67895 6.2465 1.99277L10.7922 6.53845L6.2465 11.0841C5.93268 11.398 5.93268 11.9067 6.2465 12.2206C6.56031 12.5344 7.06911 12.5344 7.38292 12.2206L12.4968 7.10666ZM1.48218 7.34202L11.9286 7.34202V5.73488L1.48218 5.73488L1.48218 7.34202Z" fill="currentColor"/>
</svg>
