<svg width="32" height="31" viewBox="0 0 32 31" fill="none" xmlns="http://www.w3.org/2000/svg">
<path d="M26.0275 26L12.0085 26V12H26.0275L26.0275 26Z" stroke="currentColor" stroke-width="2"/>
<path fill-rule="evenodd" clip-rule="evenodd" d="M19.942 9.30764V5.00001C19.942 4.44772 19.4943 4.00001 18.942 4.00001H5.00005C4.44777 4.00001 4.00005 4.44772 4.00005 5V18.9231C4.00005 19.4754 4.44777 19.9231 5.00005 19.9231H9.31377V17.9231H6.00005V6.00001H17.942V9.30764H19.942Z" fill="currentColor"/>
<g opacity="0.2" filter="url(#filter0_f_66_226)">
<path d="M26.0275 26L12.0085 26V12H26.0275L26.0275 26Z" stroke="currentColor" stroke-width="2"/>
<path fill-rule="evenodd" clip-rule="evenodd" d="M19.942 9.30764V5.00001C19.942 4.44772 19.4943 4.00001 18.942 4.00001H5.00005C4.44777 4.00001 4.00005 4.44772 4.00005 5V18.9231C4.00005 19.4754 4.44777 19.9231 5.00005 19.9231H9.31377V17.9231H6.00005V6.00001H17.942V9.30764H19.942Z" fill="currentColor"/>
</g>
<defs>
<filter id="filter0_f_66_226" x="0" y="0" width="31.0275" height="31" filterUnits="userSpaceOnUse" color-interpolation-filters="sRGB">
<feFlood flood-opacity="0" result="BackgroundImageFix"/>
<feBlend mode="normal" in="SourceGraphic" in2="BackgroundImageFix" result="shape"/>
<feGaussianBlur stdDeviation="2" result="effect1_foregroundBlur_66_226"/>
</filter>
</defs>
</svg>
