<svg width="34" height="34" viewBox="0 0 34 34" fill="none" xmlns="http://www.w3.org/2000/svg">
<path d="M17.6641 0.293521C17.7639 0.21395 17.8527 0.120121 17.9277 0.0147545H22.5227C22.8691 -0.00491818 23.2164 -0.00491818 23.5629 0.0147545H23.631C24.652 0.0117305 25.6606 0.248561 26.5831 0.707903C28.2683 1.40214 29.7259 2.59411 30.7799 4.13974C31.5776 5.31013 32.1203 6.65055 32.3695 8.0659C32.6187 9.48125 32.5683 10.9369 32.2218 12.3294L26.3374 6.23237C26.0855 5.97151 25.746 5.82535 25.3922 5.82553H16.8283C16.5535 5.83726 16.2888 5.93718 16.0697 6.11183L12.6908 8.80155C12.5092 8.94675 12.3021 9.05296 12.0815 9.11413C11.8608 9.1753 11.6308 9.19021 11.4046 9.15803C11.1785 9.12585 10.9606 9.0472 10.7633 8.92656C10.5661 8.80593 10.3935 8.64569 10.2552 8.45497C10.1178 8.26725 10.0171 8.05281 9.95902 7.82402C9.90092 7.59522 9.88655 7.35661 9.91673 7.12195C9.94691 6.88729 10.021 6.66123 10.1349 6.45682C10.2487 6.25241 10.3999 6.0737 10.5798 5.93101L17.6641 0.293521ZM8.81146 21.152L8.78635 21.1765L7.03949 22.9998L7.01618 23.0224C6.71026 23.3279 6.30315 23.4964 5.88103 23.4922C5.45891 23.4879 5.05492 23.3114 4.75459 22.9998C4.60455 22.8436 4.48545 22.6577 4.40417 22.4529C4.3229 22.2481 4.28105 22.0284 4.28105 21.8066C4.28105 21.5847 4.3229 21.365 4.40417 21.1602C4.48545 20.9554 4.60455 20.7695 4.75459 20.6133L6.50145 18.79C6.80571 18.4736 7.2166 18.2961 7.64479 18.2961C8.07299 18.2961 8.48388 18.4736 8.78814 18.79C9.0872 19.1013 9.25737 19.5238 9.26173 19.966C9.2661 20.4082 9.10431 20.8343 8.81146 21.152ZM8.28955 24.3503C7.9967 24.668 7.83491 25.0942 7.83927 25.5363C7.84364 25.9785 8.01381 26.401 8.31287 26.7123C8.94417 27.3715 9.96826 27.3715 10.5996 26.7123L12.3464 24.8909C12.5161 24.7145 12.646 24.5005 12.7267 24.2646C12.8074 24.0286 12.8368 23.7767 12.8127 23.5273C12.7886 23.2779 12.7117 23.0373 12.5876 22.8231C12.4634 22.609 12.2952 22.4267 12.0953 22.2897C11.7889 22.0779 11.4233 21.9813 11.0579 22.0155C10.6926 22.0497 10.349 22.2127 10.083 22.478L10.0597 22.5044L8.31287 24.3258L8.28955 24.3503ZM4.50888 15.8253C4.65893 15.9815 4.77802 16.1674 4.8593 16.3722C4.94058 16.577 4.98242 16.7967 4.98242 17.0186C4.98242 17.2404 4.94058 17.4601 4.8593 17.6649C4.77802 17.8697 4.65893 18.0556 4.50888 18.2118L2.76203 20.0351C2.45769 20.3521 2.04642 20.53 1.61778 20.53C1.18915 20.53 0.777875 20.3521 0.473541 20.0351C0.323497 19.8789 0.2044 19.693 0.123123 19.4882C0.041846 19.2834 0 19.0637 0 18.8418C0 18.62 0.041846 18.4003 0.123123 18.1955C0.2044 17.9907 0.323497 17.8048 0.473541 17.6486L2.22219 15.8253C2.52645 15.5089 2.93734 15.3314 3.36554 15.3314C3.79374 15.3314 4.20463 15.5089 4.50888 15.8253ZM15.9029 26.2169C16.0529 26.3731 16.172 26.559 16.2533 26.7638C16.3346 26.9686 16.3764 27.1883 16.3764 27.4101C16.3764 27.632 16.3346 27.8517 16.2533 28.0565C16.172 28.2613 16.0529 28.4472 15.9029 28.6034L14.156 30.4267C13.8518 30.7431 13.4409 30.9206 13.0127 30.9206C12.5845 30.9206 12.1736 30.7431 11.8694 30.4267C11.6311 30.1786 11.4732 29.8582 11.4178 29.5107C11.3625 29.1633 11.4125 28.8063 11.5609 28.4904L11.5627 28.4866C11.6409 28.3211 11.7445 28.1703 11.8694 28.0402L13.6162 26.2169C13.9205 25.9005 14.3314 25.723 14.7596 25.723C15.1878 25.723 15.5986 25.9005 15.9029 26.2169ZM4.2291 3.43718C5.41994 2.19467 6.86399 1.25251 8.45223 0.681823C10.0405 0.111137 11.7314 -0.0731626 13.3974 0.142837L8.95673 3.68016C8.49418 4.04767 8.10543 4.50765 7.81286 5.03361C7.52029 5.55956 7.32967 6.14111 7.25199 6.74475C7.17431 7.3484 7.21109 7.96222 7.36023 8.55087C7.50937 9.13952 7.76791 9.69138 8.12096 10.1747C8.83379 11.1505 9.88516 11.7906 11.0457 11.9554C12.2062 12.1202 13.3817 11.7962 14.3157 11.0543L17.3341 8.65275H24.8398L31.1296 15.1699C31.1498 15.1962 31.1714 15.2213 31.1942 15.2452L33.2567 17.4113C33.7206 17.9053 33.9865 18.5674 33.9995 19.2612C34.0125 19.955 33.7716 20.6276 33.3266 21.1404C32.8815 21.6532 32.266 21.9673 31.6071 22.0178C30.9481 22.0683 30.2958 21.8515 29.7845 21.412L29.6123 21.2311C29.579 21.1955 29.543 21.1627 29.5047 21.1332L27.5444 19.0763C27.4617 18.9864 27.3627 18.9147 27.2533 18.8653C27.1439 18.8159 27.0263 18.79 26.9072 18.7889C26.7881 18.7878 26.67 18.8116 26.5598 18.859C26.4496 18.9063 26.3495 18.9762 26.2653 19.0647C26.1811 19.1531 26.1145 19.2583 26.0694 19.374C26.0243 19.4897 26.0017 19.6137 26.0027 19.7388C26.0037 19.8638 26.0285 19.9874 26.0755 20.1023C26.1225 20.2172 26.1908 20.3211 26.2764 20.408L28.3389 22.5741C28.4143 22.6513 28.4896 22.7267 28.5685 22.7983L28.6474 22.8811C28.8201 23.0586 28.9576 23.2704 29.0519 23.5041C29.1461 23.7377 29.1954 23.9887 29.1967 24.2425C29.198 24.4963 29.1513 24.7478 29.0595 24.9826C28.9676 25.2173 28.8323 25.4306 28.6614 25.61C28.4905 25.7895 28.2875 25.9316 28.064 26.0281C27.8404 26.1246 27.6009 26.1735 27.3593 26.1722C27.1176 26.1708 26.8786 26.1191 26.6561 26.0201C26.4336 25.9211 26.232 25.7767 26.063 25.5953L25.7581 25.277C25.6316 25.1445 25.4704 25.0548 25.295 25.0192C25.1196 24.9836 24.9381 25.0038 24.7737 25.0773C24.6094 25.1507 24.4696 25.2741 24.3724 25.4315C24.2753 25.5889 24.2251 25.7732 24.2283 25.9607C24.2254 26.0881 24.2474 26.2148 24.2927 26.333C24.338 26.4512 24.4058 26.5585 24.4919 26.6482L24.8919 27.0683C25.0567 27.2313 25.1887 27.4273 25.28 27.6449C25.3713 27.8624 25.4201 28.097 25.4235 28.3347C25.4269 28.5725 25.3849 28.8085 25.2998 29.0288C25.2148 29.2491 25.0884 29.4493 24.9284 29.6174C24.7683 29.7855 24.5777 29.9182 24.3679 30.0075C24.1581 30.0968 23.9334 30.141 23.707 30.1374C23.4807 30.1339 23.2573 30.0826 23.0502 29.9867C22.843 29.8908 22.6563 29.7522 22.5011 29.5791H22.4993L22.4778 29.5546L22.1012 29.159C22.0183 29.0709 21.9196 29.001 21.8107 28.9532C21.7019 28.9055 21.5851 28.8809 21.4672 28.8809C21.3492 28.8809 21.2325 28.9055 21.1237 28.9532C21.0148 29.001 20.9161 29.0709 20.8332 29.159C20.6651 29.3356 20.5706 29.5751 20.5706 29.8249C20.5706 30.0746 20.6651 30.3141 20.8332 30.4907L21.2242 30.9032C21.3852 31.0702 21.5132 31.2688 21.6011 31.4877C21.689 31.7067 21.735 31.9417 21.7364 32.1793C21.7378 32.4169 21.6947 32.6525 21.6094 32.8726C21.5241 33.0927 21.3984 33.2929 21.2394 33.462C21.0804 33.6311 20.8913 33.7656 20.6828 33.8579C20.4743 33.9502 20.2506 33.9985 20.0243 34C19.7981 34.0014 19.5738 33.9561 19.3642 33.8666C19.1547 33.777 18.9639 33.645 18.803 33.478L16.2365 30.9164L17.1781 29.9332C17.495 29.6033 17.7465 29.2107 17.9182 28.7781C18.0898 28.3456 18.1782 27.8816 18.1782 27.413C18.1782 26.9443 18.0898 26.4804 17.9182 26.0478C17.7465 25.6153 17.495 25.2227 17.1781 24.8928C16.8427 24.5424 16.4418 24.2689 16.0007 24.0896C15.5595 23.9103 15.0877 23.8291 14.6152 23.8512C14.6359 23.3569 14.5578 22.8637 14.3861 22.403C14.2144 21.9424 13.9527 21.5246 13.618 21.1765C13.2827 20.8267 12.882 20.5537 12.4412 20.3747C12.0004 20.1958 11.529 20.1147 11.0569 20.1368C11.0776 19.6429 10.9995 19.1499 10.8278 18.6895C10.656 18.2292 10.3944 17.8117 10.0597 17.464C9.63369 17.0195 9.10398 16.7003 8.52358 16.5383C7.94319 16.3764 7.33247 16.3773 6.75253 16.5411C6.6525 15.7667 6.31135 15.0488 5.78226 14.4993C5.19224 13.8851 4.41015 13.5165 3.58103 13.4617C2.75192 13.407 1.93204 13.6699 1.27344 14.2017C0.850082 12.292 0.899454 10.3002 1.41685 8.41619C1.93424 6.53218 2.90241 4.8187 4.2291 3.43906V3.43718Z" fill="currentColor"/>
</svg>
