<svg width="40" height="44" viewBox="0 0 40 44" fill="none" xmlns="http://www.w3.org/2000/svg">
<path fill-rule="evenodd" clip-rule="evenodd" d="M39.4662 23.2998C39.4662 23.988 38.9608 24.829 38.3431 25.154C38.0436 25.3069 37.3698 25.4407 36.8457 25.4407C36.3216 25.4407 35.9099 25.4789 35.9099 25.5172C35.9099 25.5554 36.0783 26.8743 36.2842 28.4227C36.7334 31.9207 36.7521 32.7809 36.3029 33.7558C35.367 35.8393 33.7199 36.4319 30.4069 35.954C29.6956 35.8393 29.078 35.8011 29.0405 35.8393C29.0031 35.8775 29.1715 37.4641 29.4336 39.3373C29.6956 41.2297 29.9202 42.9692 29.9202 43.1986V43.6H10.0797V43.1986C10.0797 42.9692 10.4166 40.5607 10.8471 37.8273C11.2589 35.0938 11.5771 32.7044 11.5397 32.5133C11.5022 32.3412 10.9407 31.7487 10.2669 31.2326C7.40309 28.9961 5.30673 25.6701 4.23984 21.6559C3.73446 19.7253 3.67831 15.5965 4.12753 13.9143C4.29599 13.2835 4.48316 12.7292 4.55803 12.6719C4.61419 12.6145 5.06341 12.9777 5.56878 13.4747C6.4485 14.354 6.46722 14.3922 6.31748 15.1759C5.92441 17.2786 6.26133 20.5664 7.10361 22.8602C8.28282 26.0906 10.2856 28.4227 14.0104 30.8885C18.4464 33.8322 20.6738 36.7377 21.0482 40.0446L21.1792 41.1151H27.3372L27.2249 40.5989C27.1769 40.3374 27.0468 39.4049 26.9047 38.3872L26.9047 38.3869L26.8319 37.8655C26.6634 36.6612 26.4762 35.629 26.4014 35.5526C26.3265 35.4952 25.4655 35.3232 24.4922 35.1894C23.5189 35.0556 22.452 34.8453 22.1525 34.7115C21.3476 34.3866 20.0374 32.8 19.869 31.9589C19.7754 31.5766 19.7192 28.3653 19.7192 24.8099C19.7192 20.9678 19.6443 18.3681 19.5508 18.3681C19.1764 18.3681 17.7539 20.1458 17.7539 20.6046C17.7539 22.4588 15.4329 23.3954 14.1227 22.0765C12.8312 20.7384 13.7296 18.3681 15.5265 18.3681C15.8634 18.3681 16.3688 18.0432 17.0426 17.4124L18.0721 16.4566L18.0346 15.2142L18.0346 15.2131C18.0159 13.9717 18.0156 13.9523 17.0052 12.9204C16.2003 12.0793 15.9008 11.8881 15.5265 11.9646C14.9462 12.0602 12.3258 14.6981 12.3258 15.1759C12.3258 15.692 11.8204 16.6096 11.4086 16.8389C11.2027 16.9345 10.6974 17.0301 10.2669 17.0301C9.31228 17.0301 8.39512 16.2273 8.39512 15.3862C8.39512 14.9657 7.90847 14.354 5.92441 12.3278C3.82805 10.1869 3.32268 9.76637 2.72372 9.6708C0.683511 9.30761 0.0471157 6.78443 1.73169 5.7331C2.63013 5.17876 3.41627 5.25522 4.18368 5.9816C4.74521 6.53593 4.87623 6.82266 5.00725 7.87398C5.04469 8.08425 5.71852 8.81062 5.88698 8.81062C5.98056 8.81062 6.24261 8.46655 6.46722 8.06513C7.59027 6.05805 10.2294 3.55398 12.7189 2.13947C16.3501 0.0750455 21.3476 -0.498406 25.6714 0.648497C30.2384 1.87186 33.6825 4.94938 35.5355 9.49876C36.1906 11.1044 39.4662 22.6117 39.4662 23.2998ZM35.2735 22.9558C36.8457 22.9558 37.0516 22.9175 36.958 22.6499C36.9019 22.4779 36.1345 19.8018 35.2547 16.686C34.375 13.5512 33.4017 10.4736 33.1022 9.8046C32.4471 8.37097 31.1743 6.65062 30.0138 5.59929C28.9469 4.64354 26.6447 3.40106 25.1473 2.98053C23.8371 2.61735 19.6069 2.44531 18.278 2.69381C14.235 3.43929 9.92996 6.4977 8.18923 9.88106L7.75873 10.703L8.67588 11.7352L8.75539 11.8231C9.50185 12.6479 9.87766 13.0632 10.2639 13.0731C10.6555 13.0832 11.0579 12.6766 11.8682 11.8576L11.8682 11.8576L11.9514 11.7735C13.0371 10.6648 13.4488 10.1104 13.4488 9.76637C13.4488 8.42832 14.965 7.2623 16.1816 7.66372C17.0239 7.95044 17.7539 8.86797 17.7539 9.65168C17.7539 10.1296 17.9598 10.4545 18.7459 11.2573C19.4073 11.92 20.1435 12.2513 20.9546 12.2513H22.1712L23.1445 11.2C23.9307 10.3589 24.1178 10.034 24.1178 9.49876C24.1178 8.69593 24.9414 7.77841 25.8024 7.58726C26.9442 7.35788 28.2357 8.29452 28.2357 9.38407C28.2357 10.034 28.3667 10.2251 29.9577 11.8117C30.8374 12.7101 31.4738 13.2071 31.7358 13.2071C31.9792 13.2071 32.4284 13.4556 32.7466 13.7423C33.2145 14.1819 33.3456 14.4304 33.3643 15.0995C33.383 15.7876 33.2894 15.9979 32.7653 16.4758C31.923 17.2595 30.8561 17.2404 30.0887 16.4758C29.7331 16.1126 29.5459 15.7112 29.5459 15.3671C29.5459 14.9083 29.2464 14.5069 28.0672 13.3218C26.2891 11.5632 26.027 11.5441 24.6419 13.035C23.7622 13.9908 23.7435 14.0481 23.7435 15.195C23.7435 16.3419 23.7435 16.3802 24.7355 17.3742C25.4468 18.0814 25.8586 18.3681 26.2329 18.3681C27.9175 18.3681 28.9095 20.4135 27.8988 21.7897C27.4495 22.4014 26.3639 22.8602 25.6901 22.6881C24.8852 22.4779 24.1178 21.5604 24.1178 20.8149C24.1178 20.2988 23.9306 19.9929 23.2194 19.2666C22.7327 18.7696 22.2648 18.3681 22.1899 18.3681C22.1151 18.3681 22.0589 21.2545 22.0589 24.7717C22.0589 31.9016 22.0963 32.1119 23.2194 32.4942C23.9306 32.7235 31.5487 33.6602 32.6717 33.6602C33.4204 33.6602 34.0194 33.2205 34.2814 32.4942C34.3376 32.3221 34.1317 30.2195 33.8322 27.811C33.5327 25.4216 33.3081 23.3572 33.3643 23.2043C33.4391 23.0322 33.9445 22.9558 35.2735 22.9558ZM18.7459 41.1151L18.6336 40.1784C18.5026 39.0506 17.9972 37.942 16.949 36.5466C15.9383 35.2085 13.8232 33.4308 13.8232 33.9469C13.8232 34.0998 12.8873 40.0446 12.775 40.5798L12.6627 41.1151H18.7459ZM4.23048 7.52035C4.23048 8.31212 3.60197 8.95398 2.82667 8.95398C2.05136 8.95398 1.42286 8.31212 1.42286 7.52035C1.42286 6.72858 2.05136 6.08672 2.82667 6.08672C3.60197 6.08672 4.23048 6.72858 4.23048 7.52035ZM15.5546 11.2478C16.3299 11.2478 16.9584 10.6059 16.9584 9.81416C16.9584 9.02239 16.3299 8.38053 15.5546 8.38053C14.7793 8.38053 14.1508 9.02239 14.1508 9.81416C14.1508 10.6059 14.7793 11.2478 15.5546 11.2478ZM22.3865 15.1664C22.3865 15.9581 21.7579 16.6 20.9826 16.6C20.2073 16.6 19.5788 15.9581 19.5788 15.1664C19.5788 14.3746 20.2073 13.7327 20.9826 13.7327C21.7579 13.7327 22.3865 14.3746 22.3865 15.1664ZM15.5546 22.1434C16.3299 22.1434 16.9584 21.5015 16.9584 20.7097C16.9584 19.918 16.3299 19.2761 15.5546 19.2761C14.7793 19.2761 14.1508 19.918 14.1508 20.7097C14.1508 21.5015 14.7793 22.1434 15.5546 22.1434ZM27.6274 9.81416C27.6274 10.6059 26.9989 11.2478 26.2235 11.2478C25.4482 11.2478 24.8197 10.6059 24.8197 9.81416C24.8197 9.02239 25.4482 8.38053 26.2235 8.38053C26.9989 8.38053 27.6274 9.02239 27.6274 9.81416ZM31.6516 16.6C32.4269 16.6 33.0554 15.9581 33.0554 15.1664C33.0554 14.3746 32.4269 13.7327 31.6516 13.7327C30.8763 13.7327 30.2478 14.3746 30.2478 15.1664C30.2478 15.9581 30.8763 16.6 31.6516 16.6ZM27.6274 20.7097C27.6274 21.5015 26.9989 22.1434 26.2235 22.1434C25.4482 22.1434 24.8197 21.5015 24.8197 20.7097C24.8197 19.918 25.4482 19.2761 26.2235 19.2761C26.9989 19.2761 27.6274 19.918 27.6274 20.7097ZM10.3137 16.4088C11.089 16.4088 11.7175 15.767 11.7175 14.9752C11.7175 14.1834 11.089 13.5416 10.3137 13.5416C9.53836 13.5416 8.90986 14.1834 8.90986 14.9752C8.90986 15.767 9.53836 16.4088 10.3137 16.4088Z" fill="currentColor"/>
</svg>
