<svg width="34" height="34" viewBox="0 0 34 34" fill="none" xmlns="http://www.w3.org/2000/svg">
<path d="M14.1867 0C12.1374 0 10.2846 0.855436 8.95784 2.22904C8.35578 2.85237 8.0835 3.72718 8.11164 4.59531L8.42594 14.1158C8.45182 14.9046 8.88363 15.6229 9.56446 16.0128L11.9338 17.3674L11.8789 10.0406C11.8676 8.46303 12.6719 6.99221 14.002 6.15807L19.721 2.57214C18.3515 0.960535 16.3473 0 14.1867 0ZM25.0751 2.51016C24.4307 2.49448 23.7864 2.69291 23.2311 3.04141L15.1933 8.07943C14.5271 8.49649 14.125 9.23298 14.1317 10.0229L14.1515 12.7677L20.4265 9.0556C21.7781 8.2566 23.4437 8.22138 24.8268 8.96484L30.7721 12.1612C31.4732 10.1609 31.2987 7.94006 30.2139 6.0474C29.2359 4.34286 27.6591 3.12306 25.7719 2.61419C25.7539 2.60966 25.7349 2.60544 25.7169 2.60091C25.5056 2.54566 25.2899 2.51538 25.0751 2.51016ZM5.95329 7.4043C3.88268 7.78963 2.05758 9.06334 0.975014 10.9526C-0.0501625 12.741 -0.239377 14.7864 0.278276 16.6303C0.51347 17.4667 1.12862 18.1403 1.88935 18.5495L10.2326 23.0363C10.9258 23.4081 11.7575 23.3899 12.4327 22.9898L14.7823 21.602L8.45451 17.985C7.09174 17.2064 6.22924 15.7708 6.17747 14.1932L5.95329 7.4043ZM22.6596 10.698C22.2808 10.706 21.9049 10.8101 21.5673 11.0102L19.2177 12.398L25.5455 16.015C26.9083 16.7936 27.7708 18.2292 27.8225 19.8068L28.0467 26.5868C30.1162 26.1981 31.9413 24.9356 33.025 23.0452C34.0502 21.2568 34.2394 19.2147 33.7217 17.3697C33.4865 16.5333 32.8703 15.8574 32.1085 15.4483L23.7652 10.9637C23.4203 10.7784 23.0384 10.6901 22.6596 10.698ZM16.8088 13.8081C16.6149 13.8198 16.4248 13.8824 16.2571 13.994L14.5449 15.1318C14.2096 15.3539 14.018 15.741 14.0416 16.1456L14.1647 18.2064C14.1883 18.611 14.4244 18.9702 14.7845 19.1516L16.6176 20.0768C16.9777 20.2582 17.4053 20.2315 17.7407 20.0082L19.4529 18.8704C19.7882 18.6472 19.9809 18.2601 19.9562 17.8566L19.8331 15.7958C19.8095 15.3912 19.5734 15.032 19.2133 14.8507L17.3802 13.9254C17.2002 13.8347 17.0026 13.7963 16.8088 13.8081ZM22.0662 16.6326L22.1211 23.9594C22.1324 25.537 21.3281 27.0078 19.998 27.8419L14.2702 31.4323C15.6363 33.045 17.6347 34 19.8133 34C21.8626 34 23.7143 33.1446 25.0422 31.771C25.6442 31.1476 25.9165 30.2728 25.8884 29.4047L25.5741 19.8842C25.5482 19.0954 25.1164 18.3771 24.4355 17.9872L22.0662 16.6326ZM19.8485 21.2323L13.5735 24.9444C12.8757 25.3569 12.0853 25.5664 11.2942 25.5664C10.5639 25.5664 9.83375 25.3899 9.17543 25.0352L3.22128 21.8344C2.51795 23.8324 2.6979 26.0497 3.78834 27.9526C4.76626 29.6571 6.34095 30.8747 8.22813 31.3836C8.23375 31.3847 8.24116 31.3869 8.24791 31.388C9.10429 31.617 10.0183 31.4278 10.7711 30.9564L18.8067 25.9184C19.4718 25.5036 19.875 24.767 19.8683 23.9771L19.8485 21.2323Z" fill="currentColor"/>
</svg>
