<svg width="30" height="30" viewBox="0 0 30 30" fill="none" xmlns="http://www.w3.org/2000/svg">
<path d="M10.8236 0.640637C10.8525 0.00492484 11.8985 -0.249352 12.2106 0.305451C13.6785 2.90609 16.1751 6.72613 19.0069 8.46567C21.8387 10.1994 26.3812 10.6964 29.3632 10.8236C29.999 10.8525 30.2475 11.8985 29.6927 12.2106C27.092 13.6785 23.2778 16.1751 21.5382 19.0069C19.7987 21.8387 19.3074 26.3812 19.1803 29.3633C19.1514 29.999 18.0996 30.2475 17.7933 29.6927C16.3254 27.092 13.8288 23.2778 10.9912 21.5382C8.15938 19.7987 3.61693 19.3074 0.640644 19.1803C0.00493229 19.1514 -0.249356 18.0996 0.305447 17.7933C2.90609 16.3254 6.72614 13.8288 8.46568 10.9912C10.1994 8.15937 10.6964 3.61692 10.8236 0.640637Z" fill="currentColor"/>
</svg>
