<svg width="40" height="22" viewBox="0 0 40 22" fill="none" xmlns="http://www.w3.org/2000/svg">
<path d="M24.2367 0.310436C24.4273 0.605324 24.3106 0.980561 23.9761 1.14855L23.2736 1.50142C22.9392 1.66941 22.5136 1.56654 22.3231 1.27165C22.1325 0.976765 22.2492 0.601527 22.5837 0.433536L23.2862 0.0806689C23.6206 -0.0873222 24.0462 0.015548 24.2367 0.310436Z" fill="currentColor"/>
<path d="M21.0291 1.76525C21.2166 2.06163 21.0961 2.43593 20.76 2.60127C20.4086 2.7741 20.0227 2.95556 19.6055 3.15174C16.3296 4.69216 11.1229 7.14052 5.5383 13.4499C5.53333 13.4571 5.52833 13.4643 5.52331 13.4714C4.80459 14.4892 3.36714 17.8497 7.50523 17.8497C11.5933 17.8497 16.5697 15.5668 17.8277 14.9897L18.0315 14.8962C18.7794 14.5531 20.1083 13.9434 21.1554 13.4935L20.3517 13.4508C19.9149 13.4276 19.739 12.9428 20.0795 12.7004L25.0739 9.14429C25.2202 9.04008 25.2839 8.87 25.2366 8.70945L23.6236 3.23078C23.5137 2.85735 23.9823 2.56006 24.3489 2.77062L29.7281 5.85984C29.8857 5.95037 30.0889 5.95119 30.2474 5.86194L35.6585 2.81635C36.0273 2.60876 36.4928 2.90982 36.379 3.28235L34.7091 8.74775C34.6601 8.90791 34.722 9.07849 34.8673 9.18388L39.8245 12.7803C40.1624 13.0254 39.9815 13.5088 39.5445 13.5284L33.1333 13.817C32.9454 13.8255 32.7805 13.9301 32.7117 14.0845L30.3644 19.3528C30.2044 19.7118 29.6271 19.7095 29.4709 19.3491L27.6578 15.1677C24.6875 17.2928 21.1554 18.8374 14.5836 20.9991C7.75353 22.8119 3.67932 21.7544 2.49597 20.9991C1.65383 20.455 0.283697 18.9381 0.0348942 17.2928C-0.313592 14.9884 2.0386 11.8967 3.06223 10.7637C3.88114 9.85734 4.4416 10.1108 4.69569 10.3988C4.85434 10.6539 4.50914 11.0183 3.97023 11.5872C3.27286 12.3233 2.25112 13.4018 1.57701 15.029C1.75663 14.7515 2.2996 14.382 2.86367 13.9982C3.3574 13.6623 3.86733 13.3153 4.16384 13.0094C4.17107 13.0001 4.17862 12.9909 4.18651 12.9818C10.0512 6.24911 15.5927 3.6448 18.9419 2.07082C19.3563 1.87607 19.7372 1.69706 20.0809 1.52798C20.417 1.36264 20.8415 1.46887 21.0291 1.76525Z" fill="currentColor"/>
<path d="M7.637 8.36707C7.90398 8.12261 7.89566 7.7336 7.6184 7.49819C7.34114 7.26278 6.89994 7.27012 6.63295 7.51458L5.50042 8.55156C5.23343 8.79602 5.24176 9.18504 5.51902 9.42045C5.79627 9.65585 6.23747 9.64851 6.50447 9.40405L7.637 8.36707Z" fill="currentColor"/>
</svg>
