<svg width="25" height="20" viewBox="0 0 25 20" fill="none" xmlns="http://www.w3.org/2000/svg">
<path d="M8.29526 19.878C17.3812 19.878 22.3372 12.42 22.3372 5.93156V5.29763C23.3003 4.5962 24.1379 3.73904 24.8151 2.76193C23.9242 3.16934 22.9737 3.43365 21.9992 3.54501C23.0339 2.9304 23.8079 1.9628 24.1769 0.822857C23.2087 1.38301 22.1568 1.78585 21.0607 2.01613C19.1879 0.0533452 16.0734 -0.0464407 14.0772 1.79239C12.793 2.97871 12.2483 4.75814 12.6505 6.45362C8.6887 6.25907 4.99667 4.40189 2.49452 1.34492C1.17928 3.5807 1.8556 6.44776 4.03387 7.8706C3.24771 7.84012 2.47823 7.63631 1.78117 7.274V7.34857C1.78054 9.67762 3.42711 11.6868 5.7234 12.1589C5.00039 12.3512 4.2427 12.3767 3.50824 12.2336C4.15644 14.2306 6.01387 15.5955 8.1263 15.6269C6.38472 16.9938 4.22611 17.7304 2.00644 17.7151C1.63098 17.7151 1.21798 17.6779 0.842529 17.6406C3.0532 19.1086 5.65479 19.8876 8.31403 19.878" fill="currentColor"/>
</svg>
