<svg width="34" height="34" viewBox="0 0 34 34" fill="none" xmlns="http://www.w3.org/2000/svg">
<path d="M17 0C17.4627 6.10348e-05 17.9092 0.169928 18.2549 0.477381C18.6007 0.784833 18.8215 1.20849 18.8757 1.66799L18.8889 1.88901V32.1131C18.8884 32.5946 18.704 33.0577 18.3735 33.4077C18.043 33.7579 17.5913 33.9685 17.1107 33.9967C16.6301 34.025 16.1568 33.8686 15.7876 33.5596C15.4185 33.2505 15.1812 32.8122 15.1243 32.3341L15.1111 32.1131V1.88901C15.1111 1.38801 15.3101 0.907534 15.6644 0.553277C16.0186 0.19902 16.499 0 17 0ZM9.44444 5.66702C9.94541 5.66702 10.4259 5.86604 10.7801 6.22029C11.1343 6.57455 11.3333 7.05503 11.3333 7.55602V26.4461C11.3333 26.9471 11.1343 27.4275 10.7801 27.7818C10.4259 28.1361 9.94541 28.3351 9.44444 28.3351C8.94348 28.3351 8.46303 28.1361 8.1088 27.7818C7.75456 27.4275 7.55556 26.9471 7.55556 26.4461V7.55602C7.55556 7.05503 7.75456 6.57455 8.1088 6.22029C8.46303 5.86604 8.94348 5.66702 9.44444 5.66702ZM24.5556 5.66702C25.0565 5.66702 25.537 5.86604 25.8912 6.22029C26.2454 6.57455 26.4444 7.05503 26.4444 7.55602V26.4461C26.4444 26.9471 26.2454 27.4275 25.8912 27.7818C25.537 28.1361 25.0565 28.3351 24.5556 28.3351C24.0546 28.3351 23.5741 28.1361 23.2199 27.7818C22.8657 27.4275 22.6667 26.9471 22.6667 26.4461V7.55602C22.6667 7.05503 22.8657 6.57455 23.2199 6.22029C23.5741 5.86604 24.0546 5.66702 24.5556 5.66702ZM1.88889 11.334C2.38985 11.334 2.8703 11.5331 3.22453 11.8873C3.57877 12.2416 3.77778 12.722 3.77778 13.223V20.7791C3.77778 21.2801 3.57877 21.7605 3.22453 22.1148C2.8703 22.469 2.38985 22.6681 1.88889 22.6681C1.38792 22.6681 0.907478 22.469 0.553243 22.1148C0.199007 21.7605 0 21.2801 0 20.7791V13.223C0 12.722 0.199007 12.2416 0.553243 11.8873C0.907478 11.5331 1.38792 11.334 1.88889 11.334ZM32.1111 11.334C32.5738 11.3341 33.0203 11.504 33.366 11.8114C33.7118 12.1189 33.9326 12.5425 33.9868 13.002L34 13.223V20.7791C33.9995 21.2605 33.8151 21.7236 33.4846 22.0737C33.1541 22.4238 32.7024 22.6345 32.2218 22.6627C31.7412 22.6909 31.268 22.5346 30.8988 22.2255C30.5296 21.9165 30.2923 21.4782 30.2354 21.0001L30.2222 20.7791V13.223C30.2222 12.722 30.4212 12.2416 30.7755 11.8873C31.1297 11.5331 31.6101 11.334 32.1111 11.334Z" fill="currentColor"/>
<path d="M17 0C17.4627 6.10348e-05 17.9092 0.169928 18.2549 0.477381C18.6007 0.784833 18.8215 1.20849 18.8757 1.66799L18.8889 1.88901V32.1131C18.8884 32.5946 18.704 33.0577 18.3735 33.4078C18.043 33.7579 17.5913 33.9685 17.1107 33.9967C16.6301 34.025 16.1568 33.8686 15.7877 33.5596C15.4185 33.2505 15.1812 32.8122 15.1243 32.3341L15.1111 32.1131V1.88901C15.1111 1.38801 15.3101 0.907534 15.6644 0.553277C16.0186 0.19902 16.499 0 17 0ZM1.88889 11.334C2.38985 11.334 2.8703 11.5331 3.22453 11.8873C3.57877 12.2416 3.77778 12.722 3.77778 13.223V20.7791C3.77778 21.2801 3.57877 21.7605 3.22453 22.1148C2.8703 22.469 2.38985 22.6681 1.88889 22.6681C1.38792 22.6681 0.907478 22.469 0.553243 22.1148C0.199007 21.7605 0 21.2801 0 20.7791V13.223C0 12.722 0.199007 12.2416 0.553243 11.8873C0.907478 11.5331 1.38792 11.334 1.88889 11.334ZM32.1111 11.334C32.5738 11.3341 33.0203 11.504 33.366 11.8114C33.7118 12.1189 33.9326 12.5425 33.9868 13.002L34 13.223V20.7791C33.9995 21.2605 33.8151 21.7236 33.4846 22.0737C33.1541 22.4238 32.7024 22.6345 32.2218 22.6627C31.7412 22.6909 31.268 22.5346 30.8988 22.2255C30.5296 21.9165 30.2923 21.4782 30.2354 21.0001L30.2222 20.7791V13.223C30.2222 12.722 30.4212 12.2416 30.7755 11.8873C31.1297 11.5331 31.6101 11.334 32.1111 11.334Z" fill="currentColor"/>
</svg>
