<svg width="34" height="34" viewBox="0 0 34 34" fill="none" xmlns="http://www.w3.org/2000/svg">
<path d="M17.0014 2.83337C24.8257 2.83337 31.1681 9.17579 31.1681 17C31.1681 24.8243 24.8257 31.1667 17.0014 31.1667C14.4978 31.1707 12.0383 30.5082 9.87557 29.2471L2.8404 31.1667L4.75574 24.1287C3.49362 21.9653 2.83055 19.5047 2.83474 17C2.83474 9.17579 9.17715 2.83337 17.0014 2.83337ZM12.1734 10.3417L11.8901 10.353C11.7066 10.3642 11.5274 10.4124 11.3631 10.4947C11.2094 10.5817 11.0691 10.6905 10.9466 10.8177C10.7766 10.9778 10.6802 11.1166 10.5768 11.2512C10.0528 11.9325 9.7707 12.7689 9.77499 13.6284C9.77782 14.3225 9.95915 14.9983 10.2425 15.6301C10.8219 16.908 11.7753 18.2609 13.0333 19.5146C13.3365 19.8164 13.634 20.1195 13.9542 20.4015C15.5173 21.7777 17.38 22.7702 19.3942 23.3L20.1988 23.4232C20.4609 23.4374 20.723 23.4175 20.9865 23.4048C21.3991 23.3835 21.8019 23.2718 22.1666 23.0775C22.3521 22.982 22.5331 22.878 22.7092 22.7659C22.7092 22.7659 22.7701 22.7262 22.8862 22.6384C23.0775 22.4967 23.1951 22.3961 23.3537 22.2304C23.4713 22.1085 23.5733 21.9655 23.6512 21.8025C23.7617 21.5716 23.8722 21.131 23.9176 20.7641C23.9516 20.4836 23.9417 20.3306 23.9374 20.2357C23.9317 20.0841 23.8057 19.9269 23.6682 19.8603L22.8437 19.4905C22.8437 19.4905 21.6112 18.9536 20.8576 18.6108C20.7787 18.5764 20.6942 18.5567 20.6082 18.5527C20.5113 18.5428 20.4134 18.5537 20.321 18.5847C20.2286 18.6157 20.144 18.6662 20.0727 18.7326C20.0657 18.7298 19.9707 18.8105 18.9465 20.0515C18.8877 20.1305 18.8067 20.1902 18.7139 20.223C18.621 20.2558 18.5205 20.2602 18.4252 20.2357C18.3329 20.211 18.2424 20.1797 18.1546 20.1422C17.9789 20.0685 17.918 20.0402 17.7976 19.9892C16.9845 19.6344 16.2317 19.155 15.5663 18.5683C15.3878 18.4125 15.2221 18.2425 15.0521 18.0781C14.4947 17.5444 14.009 16.9405 13.6071 16.2818L13.5235 16.1472C13.4635 16.0568 13.4149 15.9592 13.379 15.8568C13.3252 15.6485 13.4654 15.4814 13.4654 15.4814C13.4654 15.4814 13.8097 15.1045 13.9697 14.9005C14.1256 14.7022 14.2573 14.5095 14.3423 14.3721C14.5095 14.103 14.5619 13.8267 14.4741 13.6128C14.0774 12.6438 13.6666 11.679 13.2444 10.7214C13.1608 10.5315 12.9129 10.3955 12.6877 10.3686C12.6112 10.3601 12.5347 10.3516 12.4582 10.346C12.2679 10.3365 12.0773 10.3384 11.8872 10.3516L12.1734 10.3417Z" fill="currentColor"/>
</svg>
